<?xml version="1.0" standalone="no"?>
<!DOCTYPE svg PUBLIC "-//W3C//DTD SVG 20010904//EN"
 "http://www.w3.org/TR/2001/REC-SVG-20010904/DTD/svg10.dtd">
<svg version="1.0" xmlns="http://www.w3.org/2000/svg"
 width="894.000000pt" height="1280.000000pt" viewBox="0 0 894.000000 1280.000000"
 preserveAspectRatio="xMidYMid meet">
<metadata>
Created by potrace 1.15, written by Peter Selinger 2001-2017
</metadata>
<g transform="translate(0.000000,1280.000000) scale(0.100000,-0.100000)"
fill="#000000" stroke="none">
<path d="M8700 12766 c-144 -31 -242 -60 -397 -117 -73 -27 -199 -69 -280 -94
-207 -62 -212 -65 -589 -253 -392 -195 -576 -308 -761 -465 -71 -59 -231 -192
-358 -295 -126 -103 -264 -221 -305 -263 -41 -43 -100 -99 -130 -126 -55 -49
-154 -150 -480 -494 -149 -156 -330 -371 -330 -391 0 -3 6 -8 14 -11 10 -4 40
29 93 101 201 272 684 762 1059 1073 142 118 290 243 329 280 235 219 510 397
920 594 324 157 385 181 385 158 0 -5 -64 -41 -141 -82 -399 -211 -627 -355
-929 -589 -161 -124 -382 -308 -494 -412 -45 -41 -133 -121 -196 -176 -160
-142 -487 -475 -606 -619 -126 -153 -196 -244 -321 -425 -104 -150 -139 -210
-125 -210 21 0 66 57 201 255 50 73 181 248 250 335 184 232 572 630 721 740
42 31 167 134 279 229 554 471 784 623 1346 889 239 114 650 282 814 334 202
63 210 72 31 34z"/>
<path d="M7270 12168 c-279 -165 -485 -313 -801 -576 -351 -293 -366 -306
-524 -461 -77 -75 -198 -191 -269 -257 -237 -219 -592 -657 -584 -721 3 -25
10 -19 74 72 291 413 709 837 1353 1373 219 182 408 324 646 484 145 98 194
138 105 86z"/>
<path d="M3788 10595 c-44 -12 -115 -59 -146 -95 -21 -25 -45 -73 -51 -103 -6
-27 -8 -28 -76 -31 -60 -2 -78 1 -125 26 -54 28 -57 28 -165 21 l-110 -8 -32
-48 c-40 -59 -51 -110 -33 -151 8 -17 15 -62 18 -100 4 -79 -7 -96 -63 -96
-73 0 -154 -47 -175 -102 -6 -18 -21 -55 -32 -82 -22 -54 -16 -66 33 -66 31 0
39 15 39 76 0 36 6 51 33 80 26 29 44 38 101 50 38 8 81 21 95 29 77 43 98 49
166 49 52 0 84 -6 122 -23 64 -28 127 -93 118 -122 -5 -15 -2 -19 15 -19 12 0
25 -10 32 -25 8 -18 26 -29 64 -40 28 -8 56 -15 61 -15 14 0 67 -59 60 -66 -3
-4 -36 12 -72 36 -66 43 -94 48 -60 10 32 -36 86 -63 159 -82 l71 -18 -55 5
c-31 3 -76 12 -102 20 -55 19 -125 77 -130 107 -4 31 -31 37 -27 7 5 -39 -8
-49 -67 -49 -57 0 -112 -22 -191 -76 -34 -23 -44 -25 -93 -19 -30 4 -67 14
-82 23 -26 15 -34 15 -112 -1 -91 -19 -131 -15 -147 14 -5 11 -20 19 -34 19
-47 0 -43 -32 8 -67 38 -26 114 -31 178 -12 20 7 45 9 54 5 15 -5 15 -9 -2
-38 -10 -18 -37 -54 -60 -79 -48 -54 -58 -92 -49 -186 9 -86 18 -100 79 -129
54 -25 83 -26 280 -8 l57 5 0 -50 c0 -38 6 -56 24 -78 24 -28 26 -28 138 -28
98 0 120 3 166 24 45 20 61 36 102 95 55 83 75 102 85 86 10 -16 8 -76 -4
-130 -5 -25 -17 -106 -26 -180 -45 -363 -186 -896 -328 -1240 -82 -199 -165
-430 -188 -520 -10 -41 -25 -126 -33 -187 -12 -96 -19 -120 -45 -160 -28 -42
-31 -44 -31 -21 0 14 -7 28 -15 32 -12 4 -15 24 -15 88 -1 86 -11 151 -54 327
-43 178 -59 334 -47 465 11 110 39 245 61 286 17 32 64 50 132 50 91 0 213 42
258 89 69 72 130 218 103 245 -5 4 -13 26 -18 49 -10 38 -15 43 -55 55 -25 7
-57 20 -73 28 -17 10 -56 16 -101 16 -62 1 -84 -4 -137 -29 -127 -60 -195
-151 -206 -272 -7 -76 1 -111 27 -111 15 0 20 7 20 29 0 15 8 39 19 52 10 13
26 40 36 59 26 53 55 80 86 80 29 0 55 23 45 39 -9 14 47 41 86 41 18 0 50
-11 72 -24 37 -22 38 -23 15 -29 -13 -4 -40 -7 -60 -7 -125 0 -257 -105 -270
-214 -6 -47 20 -44 27 4 8 51 76 130 137 158 44 21 276 50 296 37 14 -8 14
-51 -1 -78 -30 -57 -83 -107 -151 -143 -67 -35 -78 -38 -163 -39 -126 -2 -151
-18 -182 -108 -17 -52 -25 -109 -34 -261 -12 -188 -11 -199 11 -323 21 -115
40 -198 72 -318 7 -26 9 -107 5 -235 -7 -184 -1 -332 26 -640 22 -254 21 -294
-3 -375 -25 -87 -44 -109 -65 -80 -12 16 -12 22 3 44 65 98 73 166 43 341 -26
151 -42 373 -38 535 7 280 0 405 -27 495 -14 46 -36 152 -50 236 -23 138 -25
162 -15 266 22 250 33 324 53 365 21 45 18 65 -7 44 -44 -36 -76 -238 -76
-476 0 -135 11 -213 52 -380 28 -114 32 -148 32 -270 l1 -140 -34 -53 c-34
-51 -34 -55 -23 -98 15 -54 15 -84 2 -84 -5 0 -10 17 -10 39 0 37 -30 91 -51
91 -5 0 -9 -24 -9 -54 0 -39 -6 -60 -22 -81 -19 -24 -20 -31 -10 -59 16 -43
15 -78 -2 -102 -12 -15 -18 -17 -33 -8 -29 18 -21 93 16 159 17 30 31 69 31
86 0 29 -2 30 -30 24 -16 -4 -30 -4 -30 -1 0 4 12 29 26 56 19 37 25 59 20 81
-7 37 -64 121 -76 114 -5 -3 -15 -32 -22 -65 -6 -33 -13 -58 -15 -56 -2 1 -12
86 -23 187 -11 101 -30 222 -41 268 -45 193 -166 440 -314 640 -26 35 -45 64
-43 65 2 1 32 8 67 14 91 16 139 63 150 147 l6 40 75 6 c90 7 133 24 190 75
48 44 116 139 125 177 7 26 -15 79 -37 94 -7 4 -31 10 -53 13 l-40 6 40 22
c89 49 125 103 125 188 0 30 -2 31 -49 37 -28 3 -64 13 -81 22 -27 14 -49 18
-124 24 -15 1 -13 7 18 41 41 46 50 74 43 137 -10 87 -70 132 -185 138 -37 2
-82 8 -100 14 -42 13 -145 -3 -190 -30 -18 -10 -37 -19 -42 -19 -14 0 -30 60
-30 112 0 57 -19 89 -75 133 l-36 27 -42 -21 c-23 -11 -69 -31 -102 -43 -44
-17 -65 -32 -80 -56 -11 -18 -36 -53 -56 -77 -21 -24 -39 -49 -41 -56 -6 -19
-47 7 -96 62 -43 48 -76 65 -175 88 -34 8 -60 8 -85 1 -34 -9 -39 -15 -58 -72
-12 -35 -32 -87 -45 -115 -22 -50 -22 -55 -8 -100 23 -77 18 -88 -54 -103 -66
-14 -91 -14 -174 -4 -58 7 -108 -6 -147 -37 -33 -26 -33 -46 0 -80 20 -21 28
-44 38 -113 15 -102 35 -130 99 -140 l42 -7 -28 -21 c-32 -24 -56 -67 -86
-161 -24 -70 -46 -94 -119 -132 -29 -14 -33 -20 -27 -43 9 -40 37 -74 81 -100
34 -20 49 -22 112 -18 39 2 72 2 72 0 0 -3 -11 -20 -25 -38 -30 -39 -31 -56
-8 -144 21 -81 17 -76 40 -64 13 7 39 6 83 -3 36 -8 80 -14 98 -15 18 0 33 -5
33 -12 1 -7 2 -33 3 -58 1 -43 3 -46 46 -67 84 -43 160 -22 245 66 19 21 51
38 97 52 82 24 125 59 176 144 l37 63 30 -16 c19 -10 65 -17 123 -20 l92 -4
44 -49 c45 -50 149 -216 203 -324 49 -98 82 -200 124 -385 43 -191 44 -200 29
-200 -11 0 -25 29 -35 74 -6 27 -7 28 -26 11 -10 -10 -21 -16 -22 -14 -2 2
-20 29 -40 60 -44 66 -71 93 -89 86 -11 -4 -25 -25 -55 -85 -1 -2 -25 16 -55
40 -51 42 -144 89 -200 103 -37 9 -37 -6 2 -120 17 -50 33 -98 36 -107 5 -15
0 -18 -35 -18 -22 0 -41 -4 -41 -9 0 -4 13 -37 29 -72 48 -107 48 -106 0 -120
-22 -7 -44 -19 -47 -27 -3 -9 18 -36 59 -72 l64 -58 -36 -15 c-20 -8 -45 -18
-57 -21 -18 -6 -20 -10 -10 -26 16 -25 73 -56 131 -70 41 -11 46 -15 35 -28
-11 -12 -10 -17 6 -26 76 -46 108 -68 103 -72 -3 -3 -25 3 -49 14 -64 28 -135
75 -120 80 17 5 15 22 -3 22 -39 0 -135 69 -135 97 0 7 11 18 25 23 32 12 32
28 1 36 -41 10 -61 1 -64 -29 -2 -15 -6 -27 -9 -27 -4 0 -31 14 -61 31 -69 39
-83 34 -71 -22 5 -23 14 -50 20 -60 12 -24 6 -24 -73 -3 -57 14 -138 12 -138
-4 0 -4 28 -35 63 -70 l62 -64 -34 -26 c-19 -15 -46 -37 -60 -50 -25 -21 -25
-22 -7 -37 10 -8 48 -24 84 -36 58 -19 63 -23 48 -35 -10 -7 -34 -27 -53 -44
-27 -25 -32 -34 -22 -46 16 -19 103 -44 157 -44 l44 0 -26 -31 c-42 -49 -35
-63 27 -56 45 5 117 -2 206 -20 25 -4 25 -5 -13 -39 -20 -19 -35 -38 -32 -43
8 -12 149 -33 177 -26 30 7 54 -8 46 -28 -3 -9 -20 -23 -38 -32 -50 -26 -103
-13 -199 50 -47 30 -99 60 -118 66 -46 15 -142 -5 -142 -30 0 -4 11 -13 25
-19 13 -6 31 -24 39 -40 8 -16 32 -40 53 -52 l38 -23 -25 -9 c-73 -29 -101
-42 -106 -49 -8 -13 55 -66 110 -94 35 -18 66 -25 105 -25 l55 0 -34 -35 c-37
-38 -40 -35 56 -60 84 -21 88 -20 183 25 47 21 89 36 95 33 6 -4 2 -11 -9 -17
-34 -19 -77 -65 -70 -76 10 -17 80 -11 181 15 106 27 236 33 374 15 62 -8 77
-8 89 5 14 14 14 21 -2 64 -19 54 -21 71 -9 71 9 0 42 -97 42 -122 0 -35 -29
-42 -188 -46 -175 -4 -199 -11 -239 -72 -20 -29 -33 -110 -18 -110 3 0 22 11
43 25 20 13 56 31 80 39 l42 15 0 -25 c0 -14 -4 -33 -9 -42 -15 -30 -20 -78
-10 -92 8 -12 12 -12 16 -2 7 18 61 44 74 36 6 -4 8 -19 5 -37 -8 -38 9 -99
32 -120 16 -15 19 -14 37 14 14 21 26 29 40 25 86 -22 129 -28 158 -22 34 6
34 7 27 46 l-7 40 33 0 c39 0 84 19 84 35 0 17 -40 51 -80 68 l-35 15 33 1 34
1 -6 43 -6 42 17 -35 c19 -36 95 -100 119 -100 9 0 14 11 14 29 0 16 3 36 6
45 5 14 10 13 34 -4 37 -27 123 -42 180 -32 l44 7 -37 41 c-20 23 -37 44 -37
46 0 3 22 8 50 12 31 4 60 16 80 32 36 31 38 43 8 37 -13 -2 -28 0 -34 4 -18
13 -74 95 -74 108 0 25 70 27 141 5 76 -25 139 -21 139 7 0 11 5 13 18 8 37
-16 128 -17 165 -2 62 27 46 38 -43 31 -75 -6 -82 -5 -117 19 -31 21 -112 57
-129 57 -11 0 -1 -25 21 -58 34 -50 20 -61 -50 -38 -63 22 -132 19 -263 -13
-65 -15 -102 -18 -172 -14 -94 6 -104 11 -115 56 -7 27 -6 27 39 27 31 0 63
-9 94 -25 58 -31 147 -34 208 -6 44 20 129 118 222 258 52 79 56 82 76 68 11
-8 28 -15 38 -15 17 0 92 59 85 66 -2 3 -25 -5 -51 -16 -43 -20 -86 -20 -86
-1 0 5 11 29 25 53 24 43 28 46 81 52 65 7 94 20 94 41 0 18 3 18 -53 -1 -26
-9 -52 -14 -58 -12 -18 6 100 137 142 158 21 11 59 34 86 51 26 18 69 46 95
63 93 61 36 60 -67 -1 -58 -35 -87 -54 -186 -120 -26 -17 -76 -66 -110 -107
-59 -70 -89 -92 -89 -65 0 7 -10 28 -22 47 -31 51 -35 22 -7 -59 l23 -68 -52
-103 c-68 -136 -159 -239 -233 -263 -87 -29 -169 -4 -169 51 0 16 7 24 22 26
15 2 23 11 25 33 7 49 -7 115 -28 136 -26 26 -27 40 -4 122 l18 67 40 0 c22 0
48 -7 57 -15 10 -9 25 -13 34 -9 15 6 14 9 -4 39 -27 44 -36 124 -17 149 13
18 15 18 41 1 15 -10 39 -39 53 -64 47 -81 83 -121 109 -121 29 0 31 27 9 110
-21 77 -18 150 4 150 4 0 34 -37 66 -82 32 -45 61 -76 63 -70 2 7 -1 35 -7 62
-15 68 -14 142 2 164 12 16 13 16 29 -1 9 -10 25 -40 35 -67 10 -27 23 -51 30
-53 22 -8 53 35 53 73 0 29 9 45 50 88 74 78 65 108 -11 39 -45 -40 -68 -79
-71 -118 -2 -22 -18 -37 -18 -17 0 19 -81 133 -90 127 -19 -12 -60 -104 -60
-135 0 -36 0 -36 -42 -10 -44 27 -47 26 -64 -16 -13 -32 -13 -44 0 -111 9 -41
16 -80 16 -86 0 -21 -25 13 -55 76 -31 64 -96 121 -145 129 -34 5 -35 22 -3
58 20 23 40 33 71 37 23 3 42 9 42 14 0 5 -14 18 -30 31 l-30 22 50 24 c64 30
81 59 51 83 -12 10 -27 20 -34 23 -8 4 -9 8 -1 11 77 38 145 109 129 135 -3 6
-57 10 -121 10 -63 0 -114 2 -114 5 0 10 49 83 61 91 8 5 10 -2 7 -25 -2 -17
-1 -31 3 -31 8 0 27 63 54 180 35 152 108 377 142 440 79 145 153 291 153 304
0 7 20 55 43 107 24 52 82 188 128 304 46 115 108 254 136 310 29 55 125 245
213 423 90 179 167 322 174 322 14 0 -281 -604 -368 -755 -39 -67 -166 -369
-191 -455 -4 -14 -26 -61 -48 -105 -22 -44 -52 -116 -68 -160 -15 -44 -67
-165 -114 -270 -47 -104 -97 -226 -110 -270 -13 -44 -40 -129 -59 -188 -20
-60 -36 -118 -35 -130 0 -12 11 10 23 48 32 97 118 325 181 480 30 72 77 188
105 259 28 70 71 168 95 217 25 48 67 145 95 214 51 128 150 332 225 465 23
41 68 131 99 200 63 140 72 157 81 149 10 -10 -27 -93 -199 -452 -182 -379
-247 -526 -283 -637 -14 -41 -39 -101 -55 -135 -17 -33 -66 -145 -108 -250
-42 -104 -100 -246 -128 -315 -53 -132 -105 -300 -92 -300 10 0 61 122 102
240 16 47 42 114 58 150 16 36 45 108 65 160 20 52 53 131 75 175 21 44 61
141 90 214 28 73 64 156 80 185 16 28 40 80 54 116 45 118 116 272 236 510 98
195 211 465 254 607 7 21 11 21 95 16 95 -6 166 10 215 48 21 17 26 29 26 68
0 26 -6 67 -14 92 -8 24 -16 70 -19 102 -3 54 -2 57 19 57 36 0 76 19 109 50
17 16 55 40 85 53 31 14 62 32 69 41 18 22 25 89 12 115 -7 12 -52 41 -101 66
-48 24 -91 49 -95 55 -3 5 5 25 19 43 37 48 41 84 21 191 -21 118 -34 132
-127 142 -51 5 -76 3 -108 -10 -34 -13 -49 -14 -82 -6 -32 9 -38 14 -32 28 14
30 15 126 2 151 -22 41 -75 63 -138 56 -30 -3 -97 -1 -148 5 -64 7 -105 7
-131 0 -55 -15 -122 -63 -158 -114 -48 -68 -92 -56 -108 29 -10 58 -42 113
-78 135 -36 23 -81 24 -149 5z m157 -78 c8 -13 22 -50 31 -82 18 -71 25 -80
83 -110 70 -35 91 -64 98 -128 7 -66 -6 -93 -61 -127 -29 -17 -35 -26 -30 -45
6 -26 -13 -44 -22 -21 -13 33 -22 13 -35 -69 -13 -93 -35 -119 -26 -32 4 42 1
58 -16 84 -12 18 -24 33 -27 33 -17 0 -28 -68 -23 -137 4 -51 3 -74 -4 -70 -6
4 -14 45 -18 92 -5 58 -11 85 -18 82 -13 -4 -15 -59 -5 -162 7 -64 6 -67 -6
-40 -7 17 -19 62 -25 100 -7 39 -17 84 -22 101 -5 17 -9 37 -9 45 0 8 -12 20
-27 27 -56 25 -72 7 -27 -31 19 -17 29 -38 35 -77 5 -30 16 -78 25 -107 9 -30
14 -56 12 -59 -10 -9 -47 62 -61 116 -8 30 -19 56 -26 58 -14 5 -14 -6 0 -47
6 -18 9 -35 6 -38 -8 -8 -37 65 -37 93 0 17 -6 24 -18 24 -27 0 -34 -11 -18
-29 16 -20 29 -81 16 -81 -14 0 -27 29 -35 77 -6 39 -5 44 19 54 23 11 24 13
11 33 -13 19 -12 25 5 51 34 51 23 109 -27 150 -35 29 -43 126 -14 171 42 67
150 123 238 124 34 0 46 -5 58 -23z m465 -42 c43 -16 48 -16 98 1 49 16 55 16
87 1 53 -25 68 -55 53 -103 -16 -47 -46 -64 -115 -64 -109 0 -170 -48 -244
-192 -56 -111 -62 -118 -89 -111 -25 7 -37 -17 -16 -32 14 -11 12 -17 -29 -61
-25 -27 -43 -54 -40 -61 4 -12 -44 -57 -52 -49 -2 2 10 29 27 59 34 61 53 117
40 117 -12 0 -44 -46 -70 -102 -22 -48 -47 -67 -35 -27 13 39 78 140 104 160
19 15 34 19 57 14 40 -7 52 9 28 36 -16 18 -17 21 -1 55 9 19 17 52 17 74 0
46 -29 118 -59 144 -38 34 3 105 83 142 56 27 83 27 156 -1z m-1048 -147 c72
-29 80 -31 117 -18 21 7 50 10 64 6 31 -7 107 -121 107 -159 0 -26 -48 -124
-78 -159 -12 -15 -11 -18 7 -30 23 -14 29 -62 9 -74 -8 -5 -9 0 -5 15 4 17 0
24 -21 32 -15 6 -54 37 -87 69 -33 32 -80 68 -105 79 -54 25 -145 27 -197 6
-19 -8 -39 -15 -44 -15 -14 0 -10 26 6 40 19 16 19 44 -1 61 -8 7 -22 25 -30
41 -20 38 -6 61 57 93 28 14 60 32 72 40 12 8 29 13 37 10 8 -3 50 -20 92 -37z
m1330 -83 c64 -19 68 -19 142 -1 73 17 77 17 113 -1 37 -17 38 -20 51 -98 22
-127 5 -149 -153 -199 -62 -20 -90 -34 -102 -53 -35 -51 -73 -81 -111 -87 -20
-4 -89 -2 -152 3 -67 5 -120 5 -126 0 -6 -5 -18 -7 -27 -3 -8 3 -18 1 -22 -5
-3 -6 -21 -11 -40 -11 -21 0 -37 -6 -43 -17 -6 -9 -29 -22 -53 -30 -79 -23
-85 -13 -14 23 38 20 84 46 101 59 17 13 35 21 39 17 3 -4 11 0 15 9 7 11 18
15 37 11 25 -5 27 -4 14 11 -15 18 -41 23 -41 7 0 -5 -12 -7 -27 -4 -18 3 -38
-2 -54 -13 -15 -10 -57 -39 -95 -65 -37 -26 -70 -45 -73 -42 -4 4 5 13 19 22
14 9 50 42 81 74 33 35 64 58 77 58 28 0 72 21 72 33 0 6 -7 18 -16 28 -15 17
-14 23 12 90 33 83 94 157 156 188 52 25 120 24 220 -4z m247 -339 c6 -7 45
-26 86 -41 81 -29 105 -52 105 -100 0 -40 -7 -48 -65 -78 -27 -13 -59 -35 -70
-47 -11 -12 -36 -31 -57 -41 -35 -18 -37 -18 -60 0 -12 10 -52 28 -88 40 -36
13 -72 29 -80 36 -38 35 -92 47 -189 43 l-96 -3 0 29 c0 42 44 52 131 30 96
-24 122 -15 207 65 40 38 81 71 92 74 39 9 73 7 84 -7z m-1299 -47 c0 -20 -15
-26 -25 -9 -9 15 3 43 15 35 5 -3 10 -15 10 -26z m154 -128 c-7 -7 -94 90 -93
104 0 6 22 -14 49 -44 28 -30 47 -57 44 -60z m472 -16 c-19 -14 -66 -21 -66
-10 0 8 42 24 65 24 20 0 20 0 1 -14z m-688 -13 c35 -10 63 -22 63 -27 -1 -19
-53 -16 -93 5 -46 24 -68 21 -68 -10 0 -17 -3 -19 -19 -10 -26 14 -31 13 -31
-6 0 -9 9 -18 20 -21 17 -5 14 -12 -31 -63 -60 -70 -69 -102 -54 -195 7 -38
10 -76 8 -82 -3 -7 -21 -23 -41 -35 -32 -20 -51 -23 -147 -24 -60 -1 -119 3
-130 9 -34 16 -64 48 -58 63 2 7 -5 39 -16 70 -12 31 -19 64 -16 74 3 10 25
34 50 54 24 20 54 53 66 74 12 20 24 39 26 42 2 2 35 7 73 11 57 5 81 13 131
44 54 33 67 37 108 32 25 -2 55 -1 66 3 26 11 21 12 93 -8z m812 -24 c25 0 81
3 125 7 70 6 84 4 115 -15 19 -11 62 -34 95 -50 86 -43 125 -81 125 -123 0
-19 7 -51 15 -70 21 -51 19 -95 -7 -134 -26 -38 -97 -78 -112 -63 -6 6 -29 10
-52 10 -26 0 -66 11 -106 30 -53 25 -75 30 -143 30 -56 0 -92 6 -120 19 -56
25 -102 66 -110 98 -3 14 -22 44 -41 66 -52 61 -51 62 44 47 40 -7 69 -7 80
-1 20 11 18 12 -62 31 -52 12 -121 43 -131 60 -7 12 45 12 125 1 57 -9 90 0
90 23 0 10 -23 12 -105 8 -74 -3 -105 -1 -105 7 0 7 26 11 73 12 39 0 81 4 92
9 11 5 31 7 45 3 14 -3 45 -5 70 -5z m-605 -38 c-29 -12 -114 -12 -95 0 8 5
38 9 65 9 37 0 45 -3 30 -9z m275 -50 c11 -22 18 -40 15 -40 -6 0 -45 62 -45
73 0 16 11 5 30 -33z m-240 21 c-25 -14 -168 -41 -220 -41 -30 0 -52 6 -60 15
-17 21 -4 24 120 28 58 1 121 4 140 5 24 1 30 -1 20 -7z m0 -35 c0 -12 -124
-78 -155 -83 -19 -3 -35 -9 -35 -14 0 -15 22 -21 43 -11 12 6 34 13 48 16 14
3 42 17 62 30 55 38 45 14 -13 -30 -55 -42 -59 -48 -32 -59 13 -5 31 9 75 56
68 75 77 64 12 -15 -25 -31 -45 -58 -45 -61 0 -14 28 -1 57 27 38 37 47 18 12
-26 -19 -25 -19 -26 -2 -26 31 0 81 96 82 158 1 18 5 31 10 28 11 -7 2 -134
-11 -158 -5 -10 -15 -18 -22 -18 -8 0 -19 -6 -26 -14 -6 -8 -26 -16 -43 -18
-28 -3 -32 -6 -29 -29 2 -21 -14 -41 -81 -106 -86 -82 -124 -102 -213 -108
-22 -1 -52 -6 -67 -10 -25 -6 -28 -5 -26 11 2 11 -3 35 -9 55 -11 31 -10 42 7
81 19 46 19 46 -1 112 -19 64 -20 69 -4 110 22 57 47 78 97 81 l41 2 -6 -38
c-7 -45 14 -75 43 -60 13 7 16 19 13 45 l-4 34 48 7 c27 4 69 13 94 20 47 14
80 18 80 11z m235 -43 c57 -70 59 -74 44 -83 -18 -11 6 -40 33 -40 11 0 40
-22 66 -48 67 -69 130 -112 164 -112 23 0 28 -4 28 -24 0 -26 -31 -71 -62 -87
-40 -21 -149 -30 -228 -18 -142 21 -171 44 -184 148 -7 50 -6 53 12 49 31 -8
49 7 33 26 -17 21 -8 43 24 58 15 7 24 17 20 25 -3 7 -8 20 -11 28 -11 26 11
16 28 -13 16 -26 16 -30 1 -44 -14 -15 -13 -18 10 -33 15 -9 31 -14 37 -10 16
10 12 71 -6 86 -34 28 -70 129 -46 129 4 0 21 -17 37 -37z m-1849 -235 c12
-11 17 -31 16 -58 -1 -23 7 -61 18 -86 18 -39 19 -47 6 -77 -7 -18 -38 -61
-68 -94 -63 -72 -94 -154 -102 -276 -3 -51 -12 -92 -25 -118 -26 -50 -26 -51
4 -37 38 17 75 112 75 198 1 90 17 131 72 185 28 28 65 75 82 105 27 47 41 60
98 89 l67 34 73 -21 c40 -12 92 -22 116 -22 97 0 145 -44 133 -122 -10 -63
-42 -107 -111 -151 -72 -47 -124 -99 -146 -146 -47 -99 -129 -160 -238 -176
-64 -10 -55 3 29 43 85 41 146 98 210 198 29 44 87 123 129 175 42 51 72 95
67 97 -36 12 -110 -70 -197 -218 -76 -130 -185 -216 -332 -260 -75 -23 -111
-53 -99 -85 5 -13 12 -13 54 0 26 8 64 15 84 15 20 0 66 9 102 20 l66 21 38
-21 c50 -26 55 -26 134 15 85 44 147 49 210 17 24 -11 61 -24 82 -27 52 -8 71
-40 62 -102 -6 -40 -15 -56 -58 -98 -61 -59 -144 -94 -252 -106 -38 -4 -94
-13 -122 -20 -41 -9 -61 -10 -91 -1 -22 7 -48 12 -59 12 -11 0 -55 33 -99 75
-62 58 -86 74 -110 75 -16 0 -35 5 -42 12 -45 45 48 33 164 -20 121 -56 171
-65 339 -60 139 3 143 4 181 33 46 34 63 55 64 74 0 10 -5 10 -22 -3 -109 -80
-327 -93 -494 -30 -37 14 -81 34 -97 46 -24 17 -39 20 -97 16 -52 -4 -72 -2
-83 10 -18 17 -37 8 -37 -17 0 -19 71 -123 163 -235 233 -288 389 -523 452
-681 59 -147 98 -330 114 -530 21 -251 33 -337 82 -554 57 -253 66 -278 213
-591 58 -124 106 -233 106 -242 0 -36 -26 -16 -52 40 -112 243 -192 426 -223
508 -76 204 -137 527 -155 821 -12 198 -32 286 -113 498 -64 166 -132 290
-234 427 -54 73 -108 145 -118 159 -53 70 -227 278 -256 305 -32 30 -37 31
-89 24 -31 -4 -67 -3 -83 3 -21 7 -41 4 -85 -11 -60 -22 -93 -32 -209 -62 -39
-11 -93 -30 -120 -44 -47 -25 -251 -76 -303 -76 -14 0 -34 6 -44 13 -16 12
-15 15 13 51 17 21 33 55 37 75 13 78 35 128 74 166 33 32 49 40 97 46 32 5
80 18 107 30 38 16 62 20 110 17 54 -4 74 -12 175 -73 108 -64 120 -68 195
-76 45 -4 84 -5 89 0 4 4 -11 16 -33 26 -37 17 -120 96 -120 115 0 5 -31 35
-70 67 -66 56 -92 72 -203 124 -68 31 -80 53 -82 157 -1 48 -6 106 -10 129
-10 54 -2 81 35 128 23 29 30 45 25 64 l-6 24 73 -6 c40 -3 80 -8 88 -12 8 -3
33 -29 55 -56 27 -35 61 -61 107 -84 76 -40 93 -59 114 -135 9 -30 29 -78 44
-106 39 -70 44 -108 26 -187 -18 -78 -21 -143 -6 -152 6 -3 10 1 10 9 0 9 14
56 31 106 40 115 37 159 -15 234 -25 37 -40 72 -46 111 -6 39 -19 71 -38 94
-45 57 -46 61 -23 77 11 8 38 45 60 83 22 37 50 73 63 79 35 18 164 11 184
-10z m2309 -57 c3 -6 -14 -40 -38 -78 -67 -104 -121 -207 -172 -328 -25 -60
-50 -117 -55 -125 -30 -49 -248 -499 -275 -571 -19 -48 -45 -110 -60 -140 -15
-29 -47 -104 -71 -167 -25 -63 -78 -179 -120 -257 -41 -79 -88 -180 -105 -225
-28 -77 -99 -352 -99 -383 0 -14 -40 -27 -86 -27 -20 0 -24 5 -24 33 1 86 81
386 158 592 27 72 63 173 80 225 17 52 45 133 62 180 18 47 39 108 47 135 8
28 28 93 43 145 48 156 90 353 110 515 7 50 19 126 28 170 8 44 17 95 20 114
l4 34 177 -7 c123 -5 185 -4 206 4 45 17 81 57 106 116 15 38 27 54 40 54 10
0 20 -4 24 -9z m-595 -151 c0 -66 -40 -342 -61 -425 -12 -44 -30 -122 -40
-173 -11 -51 -35 -145 -53 -210 -18 -64 -37 -137 -41 -162 -4 -25 -41 -130
-81 -235 -41 -104 -92 -236 -114 -292 -39 -99 -132 -418 -151 -518 -5 -27 -25
-230 -44 -452 -37 -431 -61 -585 -121 -788 -37 -126 -57 -156 -82 -131 -13 12
-10 25 17 90 39 94 62 205 95 451 41 311 55 464 54 580 -1 113 8 156 112 576
10 42 59 166 108 275 96 214 119 274 132 344 4 25 32 124 60 220 29 96 64 211
77 255 42 140 106 512 104 604 -1 46 1 52 14 41 8 -7 15 -29 15 -50z m-2533
-247 c23 -68 83 -127 160 -158 38 -15 82 -36 100 -46 29 -18 163 -168 163
-183 0 -15 -26 -2 -85 43 -35 27 -93 64 -129 81 -59 29 -73 32 -127 27 -37 -3
-81 -16 -115 -33 -53 -27 -55 -27 -90 -11 -19 10 -59 17 -89 17 -75 0 -95 26
-95 122 0 64 -2 71 -31 97 l-30 28 31 27 c36 29 57 31 115 11 54 -20 85 -19
120 5 17 12 43 19 59 18 25 -3 32 -10 43 -45z m1462 -53 c30 -20 56 -30 83
-30 21 0 38 -5 38 -10 0 -28 -31 -79 -68 -112 -53 -48 -111 -64 -174 -48 -60
15 -144 0 -195 -35 -25 -16 -51 -25 -78 -25 l-40 0 46 43 c25 23 56 61 68 84
36 73 78 113 116 113 19 0 37 5 41 11 9 16 65 38 94 38 14 1 45 -13 69 -29z
m583 -271 c21 -11 63 -69 50 -69 -5 0 -26 7 -45 15 -47 19 -85 19 -144 -1 -70
-24 -129 -69 -166 -125 -35 -54 -47 -60 -47 -26 0 26 31 80 68 119 25 27 123
83 172 99 27 9 85 3 112 -12z m122 -51 c22 -32 20 -45 -9 -50 -23 -5 -25 -2
-25 33 0 44 12 49 34 17z m-1661 -170 c-25 -103 -66 -245 -80 -271 -31 -61
-178 -226 -230 -258 -18 -11 -33 -25 -33 -30 0 -14 46 18 143 100 59 50 104
99 136 147 44 68 55 95 97 247 11 41 20 57 33 57 18 0 63 -44 102 -100 13 -19
54 -73 91 -119 38 -47 68 -88 68 -93 0 -4 -24 -8 -53 -8 -43 0 -61 6 -104 35
-56 38 -56 38 -73 155 -6 41 -13 76 -16 79 -15 15 -24 -36 -22 -134 1 -126 -6
-146 -81 -233 -35 -41 -58 -57 -106 -74 -42 -16 -79 -40 -122 -80 -70 -65
-103 -73 -159 -39 -48 29 -55 86 -19 154 22 43 27 64 26 125 -2 117 37 171
163 227 31 14 79 46 106 71 43 40 81 59 127 63 7 1 9 -8 6 -21z m-138 3 c8
-14 -34 -43 -129 -91 -110 -56 -154 -100 -172 -177 -8 -32 -11 -76 -8 -99 4
-30 1 -52 -15 -81 l-20 -40 -48 8 c-26 4 -61 12 -76 18 -16 6 -42 11 -58 11
-25 0 -33 6 -45 35 -35 84 -7 136 97 174 34 13 82 44 125 81 51 45 83 64 124
76 74 20 146 53 167 76 17 19 48 24 58 9z m453 -63 c102 -81 130 -92 214 -84
36 3 73 9 82 12 24 9 22 -68 -1 -88 -32 -28 -83 -49 -131 -54 l-47 -4 -102
140 c-57 77 -101 140 -98 140 3 0 40 -28 83 -62z m-653 22 c-11 -5 -29 -9 -40
-9 l-20 0 20 9 c11 5 29 9 40 9 l20 0 -20 -9z m-135 -50 c-21 -39 -79 -88
-125 -105 -39 -15 -51 -16 -83 -6 -31 10 -42 10 -67 -3 -66 -35 -155 -10 -180
50 -19 45 -19 44 1 44 9 0 29 -11 46 -25 25 -21 40 -25 98 -25 75 0 203 35
255 70 17 11 38 20 48 20 15 0 16 -3 7 -20z m837 -1093 c36 -27 77 -75 128
-150 l75 -111 0 64 c1 76 14 64 25 -20 8 -64 43 -191 56 -204 5 -6 9 27 9 83
0 51 4 90 9 87 14 -9 25 -93 26 -211 1 -111 17 -184 35 -156 4 8 11 48 15 89
6 59 9 72 17 58 10 -18 8 -64 -8 -198 -7 -58 2 -135 14 -123 4 3 12 32 18 63
11 54 11 55 12 17 1 -22 -5 -71 -13 -110 -14 -70 -13 -70 15 -132 16 -35 34
-63 39 -63 6 0 11 19 12 43 1 75 18 10 18 -74 1 -69 5 -85 41 -156 46 -93 110
-170 157 -190 18 -7 33 -20 33 -28 0 -33 -57 -5 -120 59 -32 33 -52 46 -72 46
-34 0 -95 24 -120 47 -13 12 -45 17 -120 21 -63 3 -111 10 -123 18 -17 12 -5
14 90 14 l110 0 -35 35 c-34 34 -39 35 -145 46 -111 11 -123 14 -112 25 14 14
96 15 150 1 66 -18 71 -10 27 43 l-29 35 -158 6 c-138 4 -227 19 -211 34 2 3
78 1 169 -4 90 -4 166 -6 168 -4 3 2 -11 19 -29 38 -29 30 -41 35 -80 35 -65
0 -280 28 -312 41 -42 17 -34 29 15 24 181 -21 226 -25 257 -25 30 0 32 2 20
14 -33 31 -122 67 -200 81 -46 8 -100 20 -119 26 -43 14 -97 52 -111 79 -9 16
-2 14 37 -10 40 -25 198 -70 244 -70 6 0 -10 24 -35 52 -26 29 -41 55 -36 56
6 2 46 -28 88 -67 42 -39 107 -89 145 -111 42 -26 86 -64 119 -103 123 -148
253 -289 279 -302 46 -24 52 -18 26 28 -81 139 -120 258 -177 532 -18 83 -43
177 -58 210 -43 102 -223 383 -292 458 -69 75 -66 78 17 14z m146 -352 c54
-34 77 -59 64 -71 -7 -7 -103 42 -144 73 -34 26 -73 81 -73 102 0 7 21 -6 48
-27 26 -22 73 -56 105 -77z m1082 -81 c-74 -36 -115 -43 -115 -20 0 9 27 21
73 34 106 30 121 25 42 -14z m-1059 -60 c64 -23 114 -54 87 -54 -14 0 -179 57
-200 69 -37 22 37 12 113 -15z m834 17 c0 -5 -10 -13 -22 -17 -13 -3 -35 -15
-50 -26 -22 -15 -28 -16 -28 -5 0 18 16 31 55 45 39 14 45 14 45 3z m-831
-116 c31 -15 114 -105 106 -113 -4 -5 -140 103 -151 119 -8 14 14 11 45 -6z
m821 10 c0 -4 -67 -35 -77 -35 -2 0 -1 5 2 11 11 17 75 38 75 24z m-209 -86
c-26 -43 -26 -52 -1 -44 34 11 24 -21 -14 -44 -24 -15 -39 -35 -50 -66 -8 -25
-13 -45 -10 -45 2 0 30 14 61 30 93 50 79 12 -16 -45 -49 -29 -71 -61 -57 -84
8 -12 34 -4 59 17 27 23 31 7 5 -21 -24 -26 -84 -51 -99 -41 -15 9 -10 60 16
159 26 103 40 135 88 208 25 36 33 43 35 28 2 -10 -6 -34 -17 -52z m-521 -158
c25 -22 40 -41 33 -41 -6 0 -36 23 -65 51 -62 58 -35 50 32 -10z m850 -85 c0
-7 3 -28 6 -45 6 -29 5 -31 -25 -31 -27 0 -31 3 -31 27 0 26 25 63 42 63 4 0
8 -6 8 -14z m-271 -155 c-14 -38 -66 -88 -79 -75 -7 7 3 26 32 57 48 54 61 59
47 18z m-194 -144 c33 -88 34 -118 1 -50 -15 32 -19 35 -27 20 -19 -34 -29
-16 -29 54 0 47 4 69 11 67 6 -2 26 -43 44 -91z m385 -84 c7 -47 -1 -54 -32
-26 -17 15 -18 14 -18 -35 0 -32 -4 -52 -11 -52 -16 0 -6 106 16 155 15 36 18
37 28 20 6 -11 14 -39 17 -62z m-667 -63 c37 -12 83 -35 105 -54 40 -32 41
-33 103 -24 56 7 65 6 83 -11 19 -20 19 -20 -7 -30 -110 -42 -299 -39 -486 8
-159 40 -182 54 -76 46 44 -4 88 -9 99 -12 43 -12 2 16 -56 38 -57 22 -60 24
-32 27 33 3 219 -52 229 -68 10 -16 75 -12 75 5 0 14 -65 65 -85 65 -5 0 -19
7 -29 15 -28 21 -3 20 77 -5z m585 -192 c-3 -7 -13 -13 -23 -13 -10 0 -20 6
-22 13 -3 7 5 12 22 12 17 0 25 -5 23 -12z m148 -65 c9 -21 32 -55 52 -75 40
-42 27 -50 -26 -18 -37 23 -72 75 -72 108 0 36 29 26 46 -15z m131 -10 c18
-12 39 -43 29 -43 -2 0 -30 13 -62 29 -35 17 -52 30 -43 34 17 6 47 -1 76 -20z
m-217 -6 c0 -22 -29 -67 -44 -67 -14 0 -5 39 15 64 25 32 29 32 29 3z m-294
-124 c0 -44 8 -90 22 -128 26 -71 26 -71 5 -54 -31 26 -53 91 -53 160 0 37 5
70 12 77 7 7 12 12 13 12 0 0 0 -30 1 -67z m104 5 c31 -56 35 -68 22 -68 -9 0
-82 101 -82 113 0 4 7 7 15 7 8 0 28 -24 45 -52z m-170 33 c0 -5 -22 -28 -50
-51 -58 -49 -67 -33 -13 22 35 36 63 49 63 29z m10 -64 c0 -2 -13 -16 -30 -32
-33 -32 -42 -17 -10 15 17 17 40 27 40 17z m145 -92 c21 -20 33 -45 22 -45 -2
0 -18 16 -37 35 -19 19 -28 35 -22 35 7 0 24 -11 37 -25z"/>
<path d="M4035 10131 c-32 -14 -68 -58 -62 -75 10 -26 36 -18 43 12 10 40 12
41 45 32 28 -8 30 -7 27 13 -3 24 -22 30 -53 18z"/>
<path d="M3784 10099 c-10 -17 13 -36 27 -22 12 12 4 33 -11 33 -5 0 -12 -5
-16 -11z"/>
<path d="M3840 10072 c0 -10 5 -23 12 -30 17 -17 65 -15 72 4 9 23 8 24 -18
24 -14 0 -28 5 -31 10 -10 17 -35 11 -35 -8z"/>
<path d="M4325 9611 c-3 -12 -12 -18 -20 -15 -20 8 -35 -4 -28 -21 6 -17 43
-21 43 -5 0 6 11 8 25 4 29 -7 44 18 25 41 -17 21 -37 19 -45 -4z"/>
<path d="M4285 9501 c-8 -15 3 -31 21 -31 9 0 14 7 12 17 -4 20 -24 28 -33 14z"/>
<path d="M4215 9491 c-9 -16 3 -31 26 -31 14 0 19 6 17 17 -4 20 -33 29 -43
14z"/>
<path d="M3492 9519 c2 -6 8 -10 13 -10 5 0 11 4 13 10 2 6 -4 11 -13 11 -9 0
-15 -5 -13 -11z"/>
<path d="M3600 9420 c0 -5 9 -10 20 -10 11 0 20 5 20 10 0 6 -9 10 -20 10 -11
0 -20 -4 -20 -10z"/>
<path d="M3683 9423 c-7 -3 -13 -13 -13 -24 0 -14 7 -19 25 -19 15 0 25 6 25
14 0 18 -22 35 -37 29z"/>
<path d="M3734 9378 c-7 -10 20 -38 38 -38 4 0 8 11 8 25 0 18 -5 25 -19 25
-11 0 -23 -5 -27 -12z"/>
<path d="M1570 9170 c0 -39 53 -124 132 -210 73 -80 156 -201 174 -253 8 -22
14 -56 14 -77 0 -41 54 -158 77 -167 23 -9 28 5 9 26 -9 10 -30 75 -46 144
-16 69 -36 140 -45 157 -38 73 -92 149 -150 210 -34 36 -81 95 -105 133 -23
37 -46 67 -51 67 -5 0 -9 -14 -9 -30z"/>
<path d="M7120 9194 c-54 -3 -239 -20 -555 -50 -124 -11 -368 -57 -485 -91
-292 -83 -820 -370 -1105 -600 -257 -207 -849 -866 -987 -1098 -20 -33 -71
-134 -113 -225 -119 -254 -193 -396 -236 -450 -44 -56 -48 -70 -19 -70 26 0
25 -12 0 -35 -12 -11 -20 -28 -18 -41 2 -14 -8 -34 -26 -53 -17 -17 -25 -31
-19 -31 15 0 124 114 177 185 24 33 82 130 129 215 271 495 374 660 552 882
184 229 508 565 668 693 127 102 337 233 538 335 224 114 307 150 499 215 165
57 173 70 19 31 -174 -44 -389 -138 -704 -309 -160 -86 -249 -146 -362 -241
-149 -125 -569 -561 -715 -742 -18 -23 -62 -77 -97 -120 -106 -130 -176 -245
-307 -506 -133 -266 -219 -418 -234 -418 -17 0 -12 11 66 155 42 77 101 199
133 270 111 254 248 465 447 688 60 67 151 169 201 227 142 163 349 370 443
442 121 93 394 265 535 336 151 76 444 202 563 242 176 59 260 71 806 116 265
22 564 13 746 -22 206 -40 243 -49 247 -60 2 -6 -48 -2 -134 13 -209 34 -307
43 -480 43 -592 0 -1130 -122 -1638 -370 -147 -72 -388 -224 -515 -327 -272
-217 -525 -476 -677 -693 -33 -47 -98 -138 -145 -204 -47 -65 -107 -155 -134
-200 -26 -44 -79 -128 -118 -186 -39 -58 -110 -177 -159 -265 -101 -180 -146
-246 -242 -355 -94 -106 -128 -150 -116 -150 6 0 44 33 84 73 79 79 172 206
262 362 32 55 145 228 250 385 106 157 200 301 210 320 19 38 149 212 279 375
100 125 373 398 490 489 147 114 330 233 449 290 510 247 1047 396 1486 413
288 11 741 -31 947 -87 109 -30 223 -70 230 -81 9 -14 34 -10 28 5 -6 15 -251
139 -368 186 -43 17 -106 37 -140 45 -145 33 -471 58 -636 49z"/>
<path d="M3465 8284 c-86 -80 -131 -104 -213 -114 -93 -12 -109 -34 -17 -25
134 14 244 71 291 151 44 75 30 73 -61 -12z"/>
<path d="M0 7795 c0 -32 12 -47 118 -151 64 -64 144 -138 177 -164 144 -115
406 -411 498 -563 38 -62 85 -133 105 -159 20 -26 100 -127 177 -225 143 -182
216 -294 315 -488 31 -60 75 -139 97 -175 83 -136 133 -257 177 -433 13 -51
38 -126 55 -167 34 -79 121 -369 121 -402 0 -16 48 -220 66 -280 11 -37 -16
-15 -102 84 -49 57 -121 134 -159 173 -39 38 -78 82 -88 98 -10 15 -23 27 -30
27 -12 0 -150 79 -202 116 -17 12 -68 40 -115 63 -47 24 -96 53 -110 65 -89
80 -439 302 -522 332 -21 7 -54 24 -75 38 -21 15 -43 26 -50 26 -7 0 -54 22
-105 49 -55 29 -143 64 -215 85 -68 20 -125 36 -128 36 -3 0 -5 -32 -5 -71 l0
-70 178 -86 c97 -46 254 -124 347 -171 94 -48 218 -110 276 -139 132 -64 449
-276 544 -363 39 -36 92 -81 119 -100 26 -19 67 -51 90 -71 69 -61 190 -149
196 -143 3 4 -24 33 -60 66 -69 64 -65 66 15 8 71 -51 75 -53 75 -36 0 8 -33
42 -73 75 -41 33 -104 91 -142 130 -100 104 -478 370 -697 492 -51 28 -118 69
-148 89 -67 45 -333 180 -519 262 -128 56 -169 78 -145 78 13 0 151 -54 264
-103 86 -37 435 -225 585 -315 33 -20 143 -90 245 -157 102 -67 219 -141 260
-165 59 -34 113 -82 253 -224 97 -99 177 -184 177 -190 0 -6 -5 -5 -12 2 -7 7
-18 12 -25 12 -22 0 -14 -20 16 -38 34 -21 121 -18 121 3 0 8 -18 87 -40 176
-22 89 -40 174 -39 188 1 35 18 -24 60 -207 31 -137 54 -193 65 -164 3 6 21
12 40 12 l35 0 -7 48 c-4 26 -18 83 -31 127 -26 88 -67 264 -78 335 -3 25 -20
88 -36 142 -33 110 -37 142 -10 82 18 -39 105 -354 167 -601 27 -110 44 -142
44 -84 0 35 -39 185 -76 296 -15 44 -30 98 -35 120 -27 133 -65 267 -97 342
-16 38 -35 85 -42 106 -6 20 -16 37 -21 37 -12 0 -12 2 11 -65 11 -32 20 -63
20 -69 0 -23 -21 21 -41 88 -15 51 -18 71 -9 76 8 5 9 13 2 26 -5 11 -12 33
-15 50 -8 42 -58 143 -144 289 -68 117 -77 133 -122 225 -75 149 -146 268
-202 335 -35 42 -95 116 -134 165 -155 198 -265 328 -307 364 -79 69 -100 90
-173 181 -86 108 -199 221 -252 254 -21 14 -58 49 -83 79 -107 129 -129 153
-171 183 -24 18 -63 49 -86 70 -37 34 -100 69 -124 69 -5 0 -9 -16 -9 -35z
m1059 -1054 c44 -58 78 -107 76 -110 -3 -2 -6 -2 -8 0 -2 2 -42 48 -90 101
-47 53 -96 116 -107 140 l-22 43 35 -35 c19 -19 71 -82 116 -139z m202 -321
c32 -41 75 -101 96 -133 21 -32 66 -100 99 -151 34 -51 78 -130 99 -177 20
-46 53 -106 72 -134 20 -27 49 -76 64 -110 44 -94 173 -469 202 -585 83 -340
130 -551 124 -557 -17 -16 -33 29 -87 249 -32 128 -66 253 -75 278 -9 25 -23
81 -31 124 -9 44 -24 97 -35 117 -10 21 -19 45 -19 53 0 20 -106 300 -135 355
-13 26 -41 85 -64 132 -22 48 -61 114 -87 149 -54 74 -113 168 -150 242 -15
29 -59 94 -98 143 -40 50 -80 104 -90 120 l-19 30 38 -35 c20 -19 63 -69 96
-110z m417 -615 c-3 -3 -9 2 -12 12 -6 14 -5 15 5 6 7 -7 10 -15 7 -18z m118
-216 c7 -21 10 -39 7 -39 -6 0 -33 67 -33 81 0 22 14 -1 26 -42z m-1371 -99
c3 -6 -1 -7 -9 -4 -18 7 -21 14 -7 14 6 0 13 -4 16 -10z m1310 -96 c18 -61 19
-72 5 -58 -10 10 -50 121 -50 138 1 23 30 -29 45 -80z m-894 -121 c54 -29 69
-54 17 -27 -37 19 -85 54 -73 54 4 0 29 -12 56 -27z m1010 -275 c4 -16 4 -28
0 -28 -7 0 -42 99 -40 116 1 11 28 -50 40 -88z m-345 -205 c-2 -3 -11 -1 -19
4 -19 10 -117 102 -117 109 0 3 32 -21 70 -52 39 -31 69 -59 66 -61z m75 -60
l24 -27 -32 23 c-33 23 -40 31 -25 31 5 0 19 -12 33 -27z"/>
<path d="M4027 6523 c-3 -5 -10 -27 -17 -51 -6 -24 -14 -50 -17 -58 -10 -26
26 -15 109 33 67 39 91 48 142 51 43 3 67 -1 81 -11 20 -15 20 -16 -8 -44 -15
-16 -54 -45 -87 -63 -38 -21 -59 -39 -56 -47 3 -7 1 -13 -4 -13 -21 0 -9 -20
15 -25 14 -3 36 -7 50 -10 14 -3 25 -12 25 -20 0 -21 -33 -35 -80 -35 -23 0
-58 -7 -77 -16 -37 -18 -83 -71 -83 -97 0 -20 3 -20 50 -3 38 14 94 3 87 -18
-5 -17 -93 -56 -164 -73 -80 -20 -86 -44 -19 -74 70 -30 96 -32 148 -10 53 23
138 38 138 24 0 -5 -22 -26 -49 -46 -35 -27 -68 -42 -116 -52 -113 -23 -113
-55 0 -55 59 0 125 -23 132 -45 6 -20 -76 -45 -147 -45 -54 0 -70 -3 -70 -14
0 -17 46 -56 66 -56 17 0 18 17 2 22 -29 10 7 26 72 32 52 5 77 13 97 30 l27
24 -35 33 c-19 19 -43 39 -53 44 -16 9 -7 18 69 67 l88 56 -34 21 c-54 34 -77
36 -155 13 -79 -24 -120 -27 -144 -12 -19 12 -16 14 65 38 75 23 135 55 135
72 0 19 -50 58 -83 66 l-31 6 23 19 c13 11 35 19 50 19 43 0 99 19 128 44 25
21 26 25 13 41 -8 10 -30 24 -47 32 -18 7 -33 15 -33 18 0 2 33 26 73 54 81
54 102 75 92 91 -31 50 -204 55 -289 7 -27 -15 -50 -27 -52 -27 -2 0 -4 16 -4
35 0 32 -12 46 -23 28z"/>
<path d="M5425 6280 c-100 -12 -184 -31 -300 -69 -269 -87 -625 -301 -871
-523 -153 -138 -428 -449 -555 -628 -55 -78 -188 -314 -239 -425 -46 -99 -169
-449 -200 -568 -13 -48 -24 -86 -26 -85 -1 2 -5 221 -9 488 -4 332 -3 513 5
573 8 65 8 93 -1 109 -9 17 -13 18 -19 7 -15 -28 -25 -353 -24 -769 1 -364 4
-452 23 -612 11 -103 21 -216 21 -250 1 -35 7 -90 14 -123 18 -80 120 -482
157 -620 16 -60 52 -207 79 -325 58 -249 94 -362 197 -624 84 -212 111 -266
296 -585 149 -257 185 -331 232 -478 65 -199 168 -716 151 -759 -4 -11 5 -14
39 -14 25 0 45 2 45 4 0 30 -46 357 -61 436 -27 140 -40 186 -111 385 -62 177
-105 261 -219 431 -177 265 -275 434 -350 606 -53 124 -167 499 -189 626 -11
57 -62 277 -115 489 l-96 385 50 167 c65 218 194 683 219 791 36 157 105 333
213 548 160 316 251 448 489 701 163 175 245 244 371 313 57 31 147 80 199
108 282 155 636 241 810 196 149 -38 422 -174 546 -271 35 -27 89 -68 121 -90
97 -68 445 -417 577 -580 67 -82 171 -210 231 -283 169 -206 324 -465 390
-652 48 -136 257 -551 271 -538 6 7 -22 88 -105 301 -44 114 -91 250 -105 301
-17 63 -54 152 -117 277 -51 101 -101 202 -112 224 -46 93 -202 326 -269 402
-217 244 -334 365 -486 501 -146 130 -193 165 -338 253 -219 131 -368 206
-462 230 -89 23 -256 31 -367 19z m250 -33 c39 -7 69 -16 68 -20 -4 -11 -7
-11 -113 3 -80 11 -119 11 -199 1 -206 -25 -353 -72 -548 -176 -104 -56 -123
-63 -123 -45 0 10 226 127 312 161 28 11 125 35 217 54 179 37 270 42 386 22z
m202 -95 c283 -114 463 -245 808 -589 240 -240 315 -326 525 -611 62 -84 114
-151 117 -149 4 4 -45 84 -159 259 -26 40 -78 111 -114 158 -81 102 -538 561
-647 649 -82 66 -262 175 -415 251 -85 42 -109 60 -79 60 11 0 148 -70 332
-170 99 -54 126 -75 355 -282 169 -152 435 -427 532 -548 21 -27 60 -91 87
-142 26 -52 72 -132 103 -178 90 -137 203 -379 263 -566 30 -92 52 -170 49
-173 -8 -9 -21 17 -63 124 -128 329 -326 650 -583 949 -113 130 -422 457 -496
523 -219 196 -506 381 -686 443 -28 9 -52 22 -54 28 -5 17 -6 17 125 -36z
m-1525 -459 c-38 -43 -96 -103 -128 -133 -93 -86 -190 -198 -253 -290 -116
-169 -282 -490 -328 -635 -14 -44 -49 -152 -79 -240 -29 -88 -62 -203 -74
-255 -12 -52 -32 -126 -45 -165 -13 -38 -45 -149 -70 -245 -49 -183 -72 -250
-85 -250 -8 0 -20 60 -20 106 0 29 9 56 45 139 18 41 149 471 174 571 47 186
127 384 268 669 113 226 219 379 378 544 86 89 271 261 282 261 3 0 -26 -35
-65 -77z m-581 -643 c-85 -131 -152 -279 -217 -483 -196 -607 -288 -877 -295
-870 -13 13 -30 173 -20 191 5 10 34 103 66 207 59 197 131 403 147 420 14 15
2 -31 -72 -260 -37 -115 -78 -246 -90 -290 -12 -44 -24 -89 -27 -100 -6 -20
-5 -20 15 -1 25 22 92 219 152 446 92 350 196 589 329 755 24 30 46 53 48 51
2 -2 -14 -32 -36 -66z"/>
<path d="M3487 6158 c-4 -14 9 -68 35 -141 36 -105 40 -127 35 -183 -2 -35 -3
-64 -2 -64 2 0 13 15 24 34 25 39 27 95 6 136 -9 17 -31 75 -49 131 -19 55
-36 103 -39 105 -2 3 -7 -5 -10 -18z"/>
<path d="M3360 6031 c0 -12 22 -45 49 -75 66 -73 78 -117 56 -204 -9 -35 -14
-66 -12 -68 11 -11 60 81 64 120 8 69 -2 90 -82 171 -58 59 -75 72 -75 56z"/>
<path d="M3373 5868 c14 -26 28 -66 32 -88 9 -55 25 -50 25 8 0 43 -4 52 -41
87 l-41 40 25 -47z"/>
<path d="M3800 5877 c-13 -7 -36 -29 -50 -49 -14 -21 -47 -52 -75 -70 -44 -28
-47 -33 -27 -36 13 -2 43 9 71 27 l49 30 19 -21 c24 -28 103 -78 122 -78 9 0
1 15 -24 40 -21 22 -36 43 -32 46 4 4 58 2 120 -5 62 -7 122 -9 132 -4 18 6
16 8 -10 14 -16 4 -55 8 -85 9 -30 1 -66 5 -80 9 l-25 8 34 19 c51 29 86 60
74 67 -5 3 -25 -2 -44 -13 -76 -42 -122 -60 -155 -60 -41 0 -42 6 -7 42 31 32
28 42 -7 25z"/>
<path d="M5220 5817 c0 -25 25 -37 80 -37 60 0 100 -19 100 -48 0 -9 11 -35
25 -57 13 -22 25 -50 25 -61 0 -23 -53 -77 -132 -133 -46 -33 -78 -87 -78
-131 0 -35 17 -22 55 40 26 43 48 66 78 82 81 41 115 69 131 107 20 51 56 66
146 58 75 -6 90 2 90 52 0 25 -8 26 -46 6 -16 -8 -42 -15 -59 -15 -16 -1 -57
-7 -90 -15 -58 -14 -60 -14 -78 8 -10 12 -27 41 -38 63 -26 56 -38 64 -121 80
-89 17 -88 17 -88 1z"/>
<path d="M5095 5777 c-89 -48 -132 -84 -152 -128 l-18 -38 -85 -1 c-76 0 -90
3 -135 30 -61 36 -111 38 -186 8 -68 -27 -75 -33 -59 -53 18 -22 48 -19 82 10
40 34 93 33 139 -1 31 -24 40 -25 101 -20 122 11 182 -34 180 -133 0 -34 7
-55 29 -87 15 -23 35 -44 44 -47 20 -8 20 -27 0 -27 -27 0 -26 -23 4 -113 19
-55 26 -87 18 -85 -21 7 -67 101 -67 139 0 41 -17 64 -36 48 -10 -8 -8 -22 7
-66 19 -57 25 -113 11 -113 -12 0 -51 82 -57 123 -4 28 -11 37 -25 37 -29 0
-25 -18 26 -114 25 -48 43 -90 40 -93 -12 -13 -56 41 -56 68 0 32 -17 48 -26
25 -8 -22 -23 -10 -40 30 -14 35 -44 47 -44 19 0 -23 29 -76 57 -105 36 -36
47 -60 28 -60 -8 0 -20 12 -26 27 -13 34 -29 45 -45 32 -9 -7 -19 -6 -33 3
-15 9 -23 10 -32 1 -8 -8 3 -22 40 -54 28 -24 51 -47 51 -51 0 -20 -34 -4 -65
29 -19 21 -36 35 -38 33 -3 -3 -8 -19 -11 -35 -6 -26 -3 -33 24 -48 16 -10 34
-26 40 -37 18 -34 72 -58 148 -65 39 -4 72 -11 72 -14 0 -4 -39 -24 -87 -46
-120 -52 -146 -74 -189 -155 -41 -78 -80 -110 -147 -117 -36 -4 -50 0 -95 32
-66 45 -136 56 -203 32 -73 -26 -115 -29 -149 -12 -27 14 -30 20 -30 63 0 54
24 107 60 134 14 10 57 27 95 38 71 20 72 20 149 115 39 49 92 74 186 87 92
14 87 28 -11 28 -108 0 -159 -21 -219 -90 -66 -76 -84 -77 -139 -11 -23 28
-58 56 -80 64 -55 22 -65 64 -20 88 23 12 44 52 53 101 7 40 54 88 87 88 10 0
38 -5 63 -12 39 -10 46 -9 71 10 15 12 33 22 40 22 7 0 22 -37 34 -84 30 -113
48 -129 148 -134 54 -3 74 -1 69 7 -4 6 -23 11 -43 11 -45 0 -97 25 -111 53
-6 12 -16 46 -21 75 -6 29 -29 87 -51 128 -22 42 -40 82 -40 89 0 7 11 27 25
43 29 35 30 40 9 70 l-16 23 -24 -32 c-13 -17 -28 -56 -34 -86 -10 -46 -9 -58
4 -79 32 -47 -19 -90 -93 -78 -50 8 -108 -19 -130 -60 -9 -16 -27 -40 -40 -53
-30 -29 -71 -117 -71 -153 0 -34 19 -55 68 -76 20 -8 50 -31 66 -50 16 -20 39
-40 52 -45 27 -10 32 -29 8 -29 -9 0 -46 -16 -83 -35 -50 -27 -73 -46 -89 -74
-40 -71 -22 -167 35 -189 24 -9 241 -32 303 -32 28 0 25 -18 -10 -50 -37 -35
-38 -65 -5 -128 14 -26 25 -56 25 -67 0 -29 37 -85 57 -86 10 -1 50 -2 88 -3
39 -1 90 -7 115 -15 57 -18 109 -9 150 26 29 24 35 25 97 18 37 -4 72 -9 80
-12 19 -7 16 -40 -12 -134 -14 -46 -39 -133 -55 -194 -16 -60 -46 -153 -65
-205 -20 -52 -54 -162 -76 -245 -21 -82 -55 -209 -73 -281 -19 -72 -41 -146
-49 -165 l-13 -34 -25 37 c-13 21 -27 38 -31 38 -3 0 -30 -38 -59 -85 -28 -47
-54 -85 -56 -85 -2 0 -17 10 -33 22 -53 39 -62 -5 -29 -142 3 -9 -5 -16 -18
-18 -18 -3 -24 4 -34 38 -8 27 -17 39 -26 35 -7 -3 -20 -8 -28 -11 -10 -4 -15
0 -15 13 0 30 -29 106 -50 131 -18 22 -20 22 -50 7 -31 -16 -31 -16 -41 13 -7
20 -26 38 -58 56 -58 31 -77 33 -91 6 -15 -29 -27 -25 -34 12 -4 20 -26 49
-64 84 -31 30 -60 54 -64 54 -18 0 -43 -100 -43 -172 l0 -78 -47 0 c-27 0 -48
-3 -48 -8 0 -4 21 -43 46 -87 47 -78 47 -79 26 -93 l-21 -14 25 -34 26 -34
-41 0 c-22 0 -41 -4 -41 -8 0 -4 -30 -13 -67 -19 -48 -9 -73 -19 -92 -37 l-25
-25 37 -16 c20 -8 47 -15 60 -15 34 0 40 -10 20 -33 -17 -18 -17 -19 2 -33 25
-19 110 -44 147 -44 31 0 36 -11 13 -30 -22 -18 -19 -27 12 -35 15 -3 39 -15
53 -25 15 -10 45 -25 68 -32 48 -15 50 -18 22 -43 -35 -31 -24 -42 58 -54 42
-7 87 -19 99 -27 26 -16 103 -30 103 -18 -1 15 -133 75 -165 75 -29 -1 -64 14
-55 22 3 3 24 14 48 26 24 12 42 27 39 34 -2 7 -34 15 -78 18 -69 6 -169 41
-169 60 0 11 60 29 98 29 22 0 32 4 26 9 -5 5 -58 11 -119 13 -147 6 -209 36
-127 63 l31 11 -32 11 c-18 6 -57 20 -87 32 l-55 20 37 15 c47 20 69 20 115 1
45 -19 46 -19 33 4 -6 13 -6 22 0 26 11 7 56 -3 93 -22 16 -8 27 -9 27 -3 0 5
11 10 25 10 55 0 13 30 -61 45 -37 7 -69 38 -59 55 7 12 47 9 93 -5 34 -11 27
13 -9 33 -17 9 -41 24 -53 34 -25 19 -81 116 -72 126 4 3 27 -4 53 -17 l46
-22 -8 23 c-24 77 -28 118 -16 158 7 22 19 44 27 47 21 8 69 -41 99 -101 l25
-49 15 36 c18 44 33 46 77 10 44 -37 46 -39 64 -100 15 -52 34 -71 34 -35 0
19 27 62 39 62 18 0 41 -74 41 -131 0 -60 12 -99 30 -99 6 0 10 9 10 19 0 29
11 51 25 51 20 0 23 -17 17 -106 -3 -53 0 -88 7 -103 12 -21 14 -22 31 -6 16
15 18 15 24 0 3 -9 6 -35 6 -58 1 -60 18 -26 26 50 4 40 1 75 -10 112 -9 30
-16 56 -16 58 0 9 29 1 40 -12 25 -30 26 -13 7 76 -10 49 -17 92 -14 95 2 3
20 -5 40 -16 l35 -21 21 63 c12 35 28 72 36 82 15 20 15 20 29 0 14 -17 25
-56 42 -143 l6 -33 25 41 c37 63 43 57 58 -66 8 -58 13 -63 40 -33 10 11 26
20 37 20 35 0 17 -71 -34 -129 l-31 -35 48 -11 49 -10 -35 -26 c-19 -14 -50
-34 -69 -44 -53 -27 -62 -36 -50 -50 8 -10 -5 -21 -57 -46 -76 -38 -98 -70
-128 -184 -23 -90 -22 -146 6 -194 20 -37 97 -101 121 -101 11 0 10 24 -2 36
-16 16 -32 212 -25 299 8 91 16 110 45 118 21 5 21 4 14 -141 -5 -120 4 -310
20 -417 0 -5 -9 -9 -21 -8 -27 3 -28 -4 -7 -57 20 -49 12 -62 -18 -32 -24 23
-29 72 -15 129 8 29 6 33 -11 33 -11 0 -24 -11 -31 -27 -7 -16 -24 -48 -38
-72 -23 -39 -27 -42 -38 -28 -7 9 -16 17 -21 17 -5 -1 -30 -30 -57 -65 -50
-69 -67 -79 -67 -42 0 36 -14 51 -30 32 -24 -29 -149 -115 -155 -106 -3 5 -8
43 -12 85 -7 90 -20 97 -82 41 -21 -19 -41 -35 -44 -35 -3 0 -3 27 0 61 l6 61
-29 -14 c-31 -16 -94 -33 -156 -43 -46 -7 -49 5 -17 66 11 23 19 42 17 44 -2
1 -23 13 -48 25 l-44 23 59 30 60 30 -35 29 -35 30 87 -4 c84 -4 86 -4 75 15
-31 50 -36 62 -28 70 11 11 89 -5 163 -32 32 -12 74 -21 95 -20 l38 0 -42 19
c-24 11 -43 22 -43 26 0 4 20 4 45 2 47 -6 56 1 30 22 -11 9 -32 11 -73 5 -72
-9 -68 -9 -184 0 -84 7 -98 6 -98 -7 0 -9 7 -21 15 -28 24 -20 18 -40 -12 -40
-36 0 -101 -18 -108 -30 -3 -6 10 -17 29 -27 20 -9 36 -20 36 -24 0 -3 -27
-18 -60 -32 -33 -15 -60 -31 -60 -37 0 -5 22 -21 49 -35 l50 -25 -15 -44 c-12
-34 -13 -50 -4 -65 9 -18 14 -19 31 -11 11 6 51 14 90 17 l69 6 0 -35 c0 -33
17 -98 26 -98 2 0 24 20 47 45 24 25 48 45 54 45 6 0 13 -24 16 -54 3 -30 13
-68 22 -85 l16 -32 52 37 c29 21 64 49 80 63 15 13 27 21 27 15 0 -5 9 -20 19
-33 l18 -24 52 66 53 67 28 -15 c37 -19 36 -20 50 15 7 17 15 30 19 29 3 0 21
-21 40 -47 66 -89 66 -90 66 -477 0 -344 -1 -352 -28 -480 -35 -165 -79 -309
-124 -405 -72 -154 -82 -179 -73 -185 15 -9 84 103 128 206 23 52 50 138 61
190 11 52 33 155 50 229 16 74 33 176 36 225 6 80 -8 454 -22 592 -4 48 -3 51
15 46 18 -4 20 -16 26 -111 3 -59 9 -237 12 -397 7 -347 4 -369 -114 -790 -3
-11 -12 -30 -20 -42 -13 -20 -12 -24 2 -29 43 -16 172 21 261 75 147 88 464
316 695 497 189 149 325 248 493 358 237 156 436 396 602 726 57 113 114 202
126 194 20 -12 62 -111 62 -144 0 -19 -19 -79 -42 -133 -23 -54 -39 -102 -36
-107 3 -6 22 -10 41 -10 39 0 38 3 19 -43 -17 -40 -20 -152 -5 -162 5 -3 24 1
43 8 l34 15 11 -43 c11 -43 87 -125 115 -125 8 0 20 19 27 45 7 25 16 47 20
50 4 2 25 -5 47 -16 22 -11 54 -21 69 -22 28 -2 29 0 32 47 2 29 -5 76 -17
116 -25 81 -25 80 -7 80 14 0 28 -30 62 -135 27 -82 93 -165 158 -199 38 -19
56 -6 56 40 0 19 1 34 3 34 1 0 29 -11 62 -25 62 -25 129 -32 155 -15 17 11 6
26 -24 32 -24 4 -54 45 -62 84 -6 30 -4 32 41 43 25 6 50 9 56 6 5 -4 9 -2 9
2 0 14 -22 38 -56 61 -16 11 -43 44 -58 73 l-29 52 32 -6 c45 -9 38 7 -21 51
-73 54 -87 61 -203 92 -56 15 -111 33 -123 39 -47 25 -16 84 60 116 47 19 167
20 213 1 38 -16 79 -74 104 -147 9 -27 20 -50 26 -51 5 -2 19 12 31 30 l23 33
17 -28 c29 -47 57 -74 96 -94 50 -25 58 -24 58 9 0 16 2 31 5 34 3 3 49 -10
103 -28 53 -18 116 -35 140 -39 l42 -7 -10 27 c-19 49 -13 54 37 29 38 -20 62
-24 130 -24 l84 0 -26 34 c-30 39 -35 34 65 56 67 15 180 59 180 70 0 5 -37
23 -82 40 -46 17 -98 37 -117 44 l-33 13 43 25 42 25 -53 18 c-40 13 -71 16
-122 12 -37 -3 -68 -3 -68 0 0 2 9 18 21 35 12 16 18 32 15 35 -15 16 -127 15
-165 -1 -40 -15 -56 -11 -43 11 4 7 20 16 35 22 15 6 27 17 27 24 0 12 8 12
52 1 56 -15 101 -18 111 -8 3 3 2 16 -3 29 -8 22 -6 23 52 29 33 4 71 11 84
16 35 14 32 53 -7 83 l-31 24 51 23 c28 13 51 27 51 31 0 7 -32 15 -90 22 -8
1 -16 12 -18 23 -3 24 27 34 109 34 58 0 63 15 25 65 l-24 31 66 0 c76 -1 122
9 122 26 0 6 -18 28 -40 48 -22 20 -40 39 -40 42 0 3 34 8 75 10 66 4 82 9
118 37 23 17 59 40 80 51 20 11 37 24 37 28 0 5 -34 28 -76 51 -66 38 -89 45
-164 54 l-88 9 20 45 c11 24 17 50 15 58 -8 20 -104 -2 -154 -36 l-43 -28 0
54 c0 30 -4 55 -8 55 -4 0 -40 -20 -79 -44 l-72 -44 6 49 c3 27 3 49 1 49 -16
0 -87 -36 -134 -67 -43 -29 -71 -60 -129 -147 -41 -61 -89 -121 -108 -133 -32
-22 -57 -29 -57 -17 0 20 79 150 126 209 50 62 114 177 114 205 0 17 -54 11
-116 -14 l-59 -24 -8 49 -9 49 -31 -25 c-18 -13 -48 -44 -66 -69 l-34 -45 -34
29 c-19 17 -40 30 -47 30 -13 0 -56 -117 -56 -151 0 -28 -13 -29 -47 -3 -22
17 -38 23 -44 17 -5 -5 -22 -47 -38 -94 -24 -69 -32 -83 -48 -80 -10 1 -48 3
-85 4 -67 1 -68 1 -53 21 55 75 68 100 72 140 6 53 -2 105 -20 130 -13 17 -16
16 -51 -15 -42 -36 -56 -30 -56 24 0 16 -13 59 -30 97 -16 38 -30 75 -30 84 0
27 -22 18 -64 -26 l-41 -43 -87 88 c-48 48 -89 83 -93 77 -18 -29 -45 -129
-45 -167 l0 -44 -50 7 c-39 5 -51 3 -55 -9 -10 -26 13 -92 50 -140 19 -25 32
-48 28 -50 -5 -3 -27 -8 -50 -12 -24 -4 -43 -9 -43 -11 0 -12 46 -93 75 -134
34 -48 58 -107 49 -121 -11 -19 -38 -7 -87 36 -32 30 -54 42 -60 36 -5 -5 -8
-36 -5 -69 3 -45 12 -71 36 -109 31 -48 42 -93 23 -93 -6 0 -21 10 -36 23 -20
17 -29 41 -43 109 -9 49 -20 88 -23 88 -3 0 -20 -16 -38 -35 -17 -19 -35 -35
-39 -35 -5 0 -21 14 -38 31 -58 61 -87 59 -100 -7 -5 -30 3 -68 32 -138 7 -17
4 -19 -33 -13 -63 11 -98 0 -110 -34 -10 -26 -16 -29 -53 -29 -44 0 -91 20
-127 53 -13 11 -26 18 -29 15 -11 -12 27 -132 51 -164 14 -18 25 -37 25 -42 0
-5 -16 -20 -35 -33 -30 -21 -51 -47 -43 -54 7 -6 319 -41 323 -36 3 2 -2 13
-12 23 -9 10 -13 21 -10 25 11 10 84 -28 112 -58 38 -43 57 -39 49 11 -6 34
-4 40 11 40 26 0 81 -37 114 -77 l29 -35 -43 -76 c-23 -43 -70 -133 -105 -202
-78 -155 -132 -239 -226 -356 -111 -136 -181 -198 -384 -336 -102 -69 -300
-213 -440 -319 -286 -218 -399 -298 -644 -453 -174 -111 -236 -137 -236 -99 0
11 25 121 56 244 53 207 57 235 61 364 3 81 -2 227 -11 346 -9 113 -16 235
-16 271 0 60 2 66 25 76 69 32 134 -5 136 -75 1 -21 4 -49 8 -63 7 -24 8 -24
41 22 40 54 58 65 67 40 29 -82 38 -91 119 -116 18 -6 20 -3 16 23 -2 16 3 55
13 86 16 57 16 57 40 41 13 -9 27 -16 30 -16 12 0 -8 65 -32 107 -26 44 -23
55 8 27 27 -24 88 -43 142 -44 51 0 58 10 31 48 -8 12 -13 26 -10 30 3 5 41 2
85 -6 44 -8 88 -12 96 -8 15 5 14 9 -2 37 -10 17 -30 40 -46 51 -15 11 -25 24
-22 29 4 5 46 9 95 9 49 0 92 4 95 10 3 5 -4 27 -15 50 l-20 40 42 0 c48 0
118 17 118 29 0 4 -17 17 -39 29 -70 40 -70 43 21 113 l83 64 -54 3 c-49 3
-129 -6 -220 -24 -33 -7 -33 -7 -26 25 3 17 4 31 0 31 -22 0 -73 -34 -90 -60
-24 -36 -35 -38 -35 -7 0 12 -3 32 -6 44 -5 19 -9 20 -30 11 -14 -6 -33 -25
-44 -42 -28 -47 -175 -186 -196 -186 -12 0 -5 10 25 36 23 20 56 60 72 89 16
29 38 60 49 70 27 24 25 35 -5 35 -32 0 -31 5 5 82 34 71 38 108 14 108 -20 0
-113 -46 -137 -67 -19 -18 -18 -19 -35 20 -7 16 -18 27 -24 25 -13 -5 -68
-151 -68 -180 0 -10 -5 -18 -11 -18 -8 0 -10 17 -7 50 3 28 1 53 -3 56 -5 3
-9 16 -9 29 0 36 116 380 153 455 l32 64 80 31 c195 76 223 138 140 311 -29
60 -40 74 -58 74 -15 0 -29 11 -41 31 -14 24 -21 28 -32 18 -7 -6 -21 -9 -29
-5 -9 3 -28 -2 -42 -11 -24 -16 -26 -16 -43 7 -15 20 -21 22 -33 12 -13 -11
-18 -9 -32 10 -14 20 -17 21 -25 7 -5 -8 -25 -37 -45 -65 -53 -73 -68 -112
-73 -185 -6 -91 19 -140 83 -164 l45 -18 -21 -33 c-11 -19 -29 -71 -39 -117
-45 -208 -130 -465 -157 -474 -6 -2 -19 19 -28 49 -10 29 -20 57 -22 61 -10
17 -44 -28 -64 -85 l-22 -58 -24 16 c-14 9 -29 12 -33 7 -4 -4 -10 -88 -12
-186 -5 -222 -22 -256 -31 -63 -8 165 9 376 31 376 4 0 13 4 21 9 12 8 12 12
2 24 -10 13 -3 22 47 56 57 39 102 84 102 102 0 5 -18 9 -40 9 l-39 0 19 46
c22 51 25 89 10 129 -8 22 -13 24 -29 15 -29 -15 -41 -12 -41 10 0 43 -60 124
-75 101 -10 -18 -22 -13 -29 12 -3 13 1 31 12 47 10 14 47 138 81 275 89 351
132 498 197 665 71 186 77 206 71 253 -5 35 -3 38 16 35 19 -3 21 -8 18 -48
-1 -25 -41 -151 -87 -280 -79 -218 -125 -380 -204 -720 -37 -159 -42 -213 -19
-218 12 -2 21 23 43 130 56 273 148 624 231 876 73 223 89 262 108 268 12 3
29 12 37 19 8 7 38 20 65 30 28 9 70 28 94 42 l43 25 37 -36 37 -36 55 12 c29
7 90 12 134 10 119 -3 135 2 210 68 37 33 72 60 76 60 5 0 15 13 24 30 18 34
12 71 -16 96 -28 26 -24 30 34 30 71 0 109 23 156 93 22 32 54 70 71 85 32 26
57 35 44 15 -11 -18 37 0 74 28 62 47 77 118 37 179 -23 35 -91 66 -159 71
-58 5 -126 39 -126 63 0 5 17 14 38 20 101 33 162 96 162 168 0 44 -13 58 -80
92 -24 13 -57 32 -72 43 -21 15 -35 18 -67 13 -39 -6 -41 -5 -41 20 0 15 -13
50 -29 78 -19 34 -31 72 -35 115 -9 90 -23 115 -68 119 -39 3 -108 -21 -108
-37 0 -15 14 -14 54 6 34 16 37 16 57 -3 18 -17 20 -26 15 -75 -6 -46 -2 -71
19 -134 32 -94 28 -125 -20 -189 -41 -53 -89 -83 -198 -121 -44 -16 -82 -36
-88 -47 -5 -10 -8 -18 -5 -18 2 0 54 18 115 39 124 45 181 72 201 96 29 34
135 108 156 108 12 0 35 -10 51 -21 16 -11 41 -24 56 -27 52 -13 48 -88 -8
-140 -58 -55 -118 -77 -235 -85 -101 -7 -170 -25 -184 -49 -13 -20 26 -24 73
-8 91 32 155 26 219 -18 37 -25 76 -40 139 -54 94 -21 133 -49 133 -94 0 -34
-12 -44 -60 -52 -25 -4 -54 -12 -65 -17 -28 -14 -75 -60 -75 -72 -1 -21 -70
-105 -98 -120 -28 -14 -212 -36 -307 -36 -60 0 -155 40 -155 66 0 53 -70 124
-122 124 -19 0 -36 14 -66 53 -40 51 -41 52 -19 59 12 4 74 11 137 17 119 9
180 25 164 41 -5 5 -38 4 -81 -2 -40 -6 -76 -8 -80 -4 -13 12 26 35 72 42 51
7 105 38 105 59 0 20 -1 20 -120 -20 -99 -33 -141 -43 -127 -28 4 3 36 17 72
29 79 28 161 82 147 96 -13 13 -75 -10 -146 -53 -26 -17 -50 -29 -52 -27 -1 2
35 36 82 76 46 40 84 77 84 82 0 23 -29 6 -80 -46 -30 -30 -68 -65 -85 -77
-35 -24 -35 -25 53 79 29 34 52 64 52 68 0 3 -9 6 -19 6 -11 0 -34 -19 -52
-42 -73 -96 -149 -162 -149 -130 0 5 29 51 65 103 36 52 65 100 65 107 0 24
-32 8 -49 -23 -29 -54 -83 -136 -88 -132 -2 3 6 43 19 90 18 69 20 89 10 99
-17 17 -28 2 -40 -58 -15 -68 -51 -164 -63 -164 -12 0 -12 6 11 80 11 36 20
88 20 115 -1 50 -1 50 -19 28 -12 -14 -20 -47 -25 -95 -12 -126 -23 -95 -22
63 1 147 0 151 -23 170 -27 22 -51 25 -51 6 0 -7 9 -33 21 -56 18 -38 19 -45
6 -59 -12 -14 -13 -32 -5 -98 8 -70 7 -87 -8 -115 -17 -33 -17 -33 -26 -10
-12 33 -15 139 -4 184 7 33 6 37 -12 37 -17 0 -20 -9 -26 -67 -4 -38 -2 -83 4
-103 12 -42 12 -50 1 -50 -12 0 -42 147 -40 196 2 28 -5 54 -21 79 -20 33 -22
41 -12 69 19 51 14 69 -23 99 -43 34 -44 54 -5 123 30 51 34 54 103 76 63 20
72 26 72 47 0 35 -13 35 -80 -2z m-54 -713 c12 -14 11 -16 -5 -13 -11 2 -21
10 -24 17 -5 17 13 15 29 -4z m132 -54 c-3 -12 -8 -19 -11 -16 -5 6 5 36 12
36 2 0 2 -9 -1 -20z m-213 -5 c22 -27 5 -37 -19 -11 -19 20 -21 26 -9 26 9 0
21 -7 28 -15z m270 1 c0 -3 -4 -8 -10 -11 -5 -3 -10 -1 -10 4 0 6 5 11 10 11
6 0 10 -2 10 -4z m-73 -83 c-15 -16 -17 -16 -17 -1 0 9 6 18 13 21 20 7 22 -2
4 -20z m73 23 c0 -2 -8 -10 -17 -17 -16 -13 -17 -12 -4 4 13 16 21 21 21 13z
m-308 -37 c35 -25 36 -31 3 -19 -39 15 -85 40 -85 46 0 11 53 -7 82 -27z m69
11 c31 -25 12 -26 -21 0 -14 11 -20 20 -14 20 7 0 22 -9 35 -20z m79 -1 c0 -6
-4 -7 -10 -4 -5 3 -10 11 -10 16 0 6 5 7 10 4 6 -3 10 -11 10 -16z m50 6 c0
-8 -4 -15 -9 -15 -5 0 -11 7 -15 15 -3 9 0 15 9 15 8 0 15 -7 15 -15z m197
-108 l60 -62 7 -155 c5 -107 4 -165 -4 -185 -28 -74 -194 -195 -268 -195 -35
0 -48 7 -96 51 -63 58 -95 70 -149 56 -21 -5 -40 -7 -44 -4 -12 13 9 57 52
110 55 67 65 93 65 160 0 59 25 122 61 154 13 11 45 40 71 63 44 39 109 67
164 69 13 1 43 -22 81 -62z m-257 24 c0 -10 -75 -72 -108 -90 -29 -16 -62 -90
-62 -142 0 -49 -19 -97 -59 -146 -42 -53 -65 -116 -57 -156 14 -67 13 -70 -21
-79 -23 -6 -43 -4 -69 7 -39 16 -106 19 -139 6 -11 -5 -28 -4 -37 1 -19 9 -88
150 -88 178 0 22 48 65 89 79 19 6 61 11 93 11 85 0 118 19 146 83 34 79 76
124 151 162 36 18 82 47 101 64 35 30 60 39 60 22z m447 -206 c64 -80 103 -98
207 -97 74 2 86 -1 141 -32 33 -18 61 -40 63 -48 2 -9 -11 -26 -29 -39 -17
-13 -48 -40 -68 -60 -51 -51 -72 -60 -143 -58 -35 1 -84 -3 -110 -10 -54 -13
-82 -5 -116 32 -23 24 -23 28 -12 79 7 30 10 76 6 104 -3 27 -9 82 -12 122 -8
92 4 93 73 7z m-1083 -66 c15 -13 7 -16 -76 -22 -85 -7 -102 4 -45 28 32 14
103 11 121 -6z m522 -294 c17 -13 15 -14 -33 -15 -49 0 -71 9 -56 24 12 11 69
6 89 -9z m220 -1063 c-48 -69 -57 -130 -30 -208 18 -53 14 -62 -20 -46 -60 27
-78 131 -35 195 55 79 92 118 102 108 7 -7 2 -22 -17 -49z m201 43 c8 -22 -6
-33 -17 -15 -13 20 -12 30 0 30 6 0 13 -7 17 -15z m-141 -57 c-26 -29 -39 -58
-48 -100 -14 -69 -28 -76 -28 -13 0 55 18 93 60 129 48 40 56 31 16 -16z m82
30 c17 -17 15 -124 -3 -162 -20 -42 -80 -100 -94 -92 -26 16 -12 101 30 184
23 45 44 82 48 82 4 0 12 -5 19 -12z m126 -115 c0 -75 -4 -96 -25 -133 -30
-56 -102 -109 -122 -91 -41 34 -77 -35 -162 -309 -74 -240 -91 -281 -174 -425
-81 -138 -156 -289 -176 -355 -34 -111 -33 -109 -34 -64 -1 55 32 180 64 246
15 29 54 97 87 150 33 54 81 150 108 215 43 105 68 182 141 435 18 61 28 77
108 162 88 93 121 152 121 212 0 23 36 57 55 51 6 -2 10 -41 9 -94z m1614 -5
c11 -35 25 -84 32 -110 12 -45 13 -47 33 -33 12 8 36 38 54 67 18 29 33 46 33
38 0 -30 -38 -96 -69 -122 -29 -25 -31 -31 -25 -67 6 -38 8 -40 33 -35 14 4
41 13 60 20 19 8 36 12 38 10 7 -7 -64 -46 -96 -52 -26 -6 -31 -11 -31 -35 l0
-29 72 0 c85 0 82 -15 -5 -30 -32 -5 -61 -11 -66 -14 -13 -8 -24 -77 -14 -87
4 -4 43 -9 85 -11 43 -2 78 -6 78 -10 0 -13 -64 -20 -126 -13 -62 6 -63 6 -78
-24 -9 -16 -16 -33 -16 -37 0 -3 25 -4 56 -2 50 4 55 3 39 -9 -11 -7 -35 -13
-55 -13 -20 0 -43 -6 -52 -12 -26 -21 -88 -172 -88 -214 0 -63 5 -65 100 -44
135 29 151 38 164 94 8 33 35 76 47 76 5 0 0 -13 -12 -29 -24 -32 -22 -74 3
-79 9 -2 97 37 196 87 180 91 202 108 202 160 0 9 -20 41 -45 70 -48 57 -59
78 -22 43 13 -12 27 -22 32 -22 5 0 17 -7 27 -17 23 -21 27 -16 35 44 5 45 2
55 -30 104 -33 51 -54 99 -44 99 3 0 22 -22 42 -50 20 -27 40 -50 44 -50 4 0
20 26 35 59 28 58 30 79 11 139 -10 32 18 29 33 -3 6 -14 15 -25 20 -25 4 0
21 22 37 49 16 28 32 48 37 45 4 -3 -21 -62 -57 -132 -35 -70 -67 -146 -71
-169 -6 -42 -6 -43 23 -43 17 0 56 9 89 19 32 11 61 17 64 15 11 -12 -36 -34
-107 -50 -43 -11 -78 -25 -82 -33 -11 -21 -21 -103 -13 -99 4 2 66 32 137 68
72 36 145 71 162 78 27 11 35 23 50 69 16 51 98 162 110 149 2 -2 -9 -30 -25
-62 -30 -60 -47 -114 -37 -114 19 0 46 25 69 64 34 58 186 199 186 173 0 -2
-23 -28 -51 -58 -54 -58 -89 -107 -89 -126 0 -27 89 18 137 69 52 54 119 108
137 108 6 0 -12 -24 -40 -52 -28 -29 -57 -62 -65 -72 -13 -18 -12 -19 25 -12
21 4 62 21 91 37 59 33 94 39 53 8 -41 -30 -35 -39 26 -39 93 0 71 -17 -32
-24 -113 -8 -144 -15 -136 -27 3 -5 37 -25 75 -44 38 -20 69 -38 69 -40 0 -11
-57 8 -133 43 l-78 35 -55 -17 c-54 -17 -55 -18 -38 -37 10 -11 44 -36 76 -55
32 -20 58 -37 58 -40 0 -9 -57 10 -129 42 -83 38 -133 46 -110 17 26 -31 104
-74 171 -94 65 -19 90 -39 48 -39 -30 0 -128 39 -189 76 -66 40 -106 49 -144
35 -39 -15 -27 -27 32 -35 28 -4 53 -11 56 -16 10 -17 -64 -22 -129 -10 l-63
13 -79 -42 c-44 -24 -135 -80 -204 -125 -215 -142 -287 -181 -420 -228 -58
-20 -279 -68 -317 -68 -29 0 -64 38 -61 67 4 29 -56 105 -105 133 -28 16 -64
23 -150 30 -111 9 -177 25 -220 55 -27 19 -7 20 48 1 22 -7 71 -17 109 -21
l70 -7 -17 24 c-10 12 -24 33 -33 46 -29 40 -5 37 39 -6 46 -44 82 -62 128
-62 63 0 138 -66 160 -139 7 -22 19 -43 27 -46 21 -8 23 -3 12 36 -18 62 -11
97 40 198 l49 99 -48 31 c-26 17 -57 41 -67 53 -18 21 -18 21 21 -2 22 -13 49
-30 60 -37 36 -24 51 -15 79 46 32 72 33 97 4 112 -30 15 -78 60 -78 72 0 6 8
3 18 -5 26 -23 79 -48 86 -41 4 4 4 34 0 67 -6 56 -10 64 -53 103 -47 43 -41
60 7 22 15 -11 28 -16 30 -11 1 5 -6 50 -18 100 -22 99 -22 102 -16 102 2 0
13 -28 24 -62z m-1558 13 c18 -35 12 -105 -12 -141 -26 -38 -56 -55 -43 -24
29 69 36 103 31 142 -6 44 6 56 24 23z m2557 -283 c-14 -36 -84 -147 -89 -142
-8 7 26 87 53 125 20 29 46 40 36 17z m-571 -113 c-6 -24 -13 -27 -106 -41
-42 -6 -44 -6 -30 11 8 10 42 36 75 57 58 38 60 39 63 18 2 -12 1 -32 -2 -45z
m-3069 -111 c4 -10 -1 -22 -12 -30 -23 -17 -29 -12 -21 21 7 28 24 33 33 9z
m3043 5 c0 -24 -41 -77 -69 -89 -16 -6 -46 -10 -67 -8 l-39 3 56 27 c30 15 66
39 79 53 25 27 40 32 40 14z m728 -95 c39 -23 43 -28 27 -37 -18 -10 -135 -4
-167 8 -10 4 -18 13 -18 19 0 44 91 49 158 10z m-213 -23 c-3 -5 -19 -12 -36
-16 -41 -9 -32 -26 27 -47 40 -15 68 -18 149 -13 67 3 95 2 85 -5 -8 -5 -25
-10 -37 -10 -12 0 -25 -4 -28 -10 -10 -15 104 -11 150 5 48 17 55 18 55 5 0
-5 -19 -18 -42 -28 l-43 -20 43 -7 c23 -4 45 -11 47 -15 8 -13 -58 -20 -100
-10 -80 19 -91 11 -53 -42 l21 -31 -24 16 c-13 9 -36 32 -51 50 -24 30 -73 56
-85 44 -2 -3 6 -21 18 -41 26 -44 10 -48 -23 -6 -51 68 -74 90 -102 96 -26 6
-29 5 -23 -15 3 -11 4 -21 3 -21 -1 0 -33 29 -70 63 l-69 64 97 1 c56 1 95 -2
91 -7z m-8 -159 c41 -21 73 -64 73 -96 0 -18 -42 -31 -67 -21 -16 6 -16 8 6
26 27 22 23 41 -14 65 -23 15 -33 15 -108 3 -45 -7 -97 -12 -116 -11 -37 2
-64 19 -58 36 6 18 49 25 147 22 75 -2 104 -7 137 -24z m-3377 -129 c-12 -95
-13 -98 -29 -88 -18 11 -9 73 25 174 12 37 15 -7 4 -86z m641 11 c-28 -37 -50
-69 -48 -71 2 -2 23 3 45 11 23 9 42 13 42 11 0 -3 -30 -20 -67 -39 -70 -36
-173 -119 -162 -131 4 -3 33 1 65 9 32 8 60 13 62 11 8 -8 -74 -37 -123 -44
-55 -8 -75 -16 -75 -33 0 -7 20 -9 60 -5 33 3 58 1 55 -3 -3 -5 -36 -12 -73
-15 -66 -7 -68 -8 -124 -67 -96 -99 -63 -9 38 102 13 15 26 47 31 80 l10 55 8
-38 c11 -57 38 -46 46 18 8 56 24 105 36 105 5 0 7 -24 5 -52 l-3 -53 58 65
c93 105 153 164 160 157 3 -4 -17 -37 -46 -73z m2200 -20 c-22 -26 -41 -51
-41 -55 0 -5 23 -9 51 -9 47 0 53 3 91 45 39 43 84 65 133 65 14 0 4 -10 -30
-34 -28 -18 -57 -41 -65 -51 -13 -16 -9 -17 71 -14 75 4 90 8 131 35 43 28
123 52 136 40 2 -3 -21 -17 -52 -33 -31 -15 -56 -30 -56 -33 0 -3 38 -13 85
-23 65 -12 127 -36 258 -98 95 -44 198 -90 230 -100 32 -10 66 -23 75 -28 16
-9 16 -10 0 -16 -22 -9 -240 66 -339 116 -42 22 -82 39 -88 39 -18 0 15 -59
57 -102 20 -21 31 -38 25 -38 -22 0 -104 73 -129 116 -15 25 -37 49 -49 54
-40 15 -145 24 -145 12 0 -6 22 -38 50 -71 31 -37 46 -62 39 -67 -14 -8 -91
67 -116 113 l-18 34 -356 -7 -356 -7 -16 23 c-9 13 -15 25 -13 27 2 2 32 -1
66 -6 35 -6 112 -8 173 -4 l109 6 13 31 c7 17 22 39 32 47 22 20 77 49 82 44
2 -2 -15 -25 -38 -51z m-1866 -113 c-20 -47 -23 -71 -11 -71 7 0 44 20 82 45
37 25 72 45 77 45 32 0 -98 -93 -228 -162 -56 -30 -65 -38 -43 -38 35 0 59
-10 52 -21 -9 -14 -108 -10 -148 6 -51 21 -146 5 -108 -19 5 -3 42 -12 82 -20
81 -17 124 -42 55 -32 -22 3 -62 8 -90 12 -27 3 -64 15 -82 26 -21 12 -40 17
-58 12 -24 -6 -25 -8 -10 -24 9 -10 35 -23 58 -29 46 -12 74 -27 66 -35 -7 -8
-164 37 -181 52 -27 22 -162 -37 -231 -102 -32 -30 -37 -31 -37 -13 0 7 20 34
44 59 35 37 63 53 147 86 121 47 161 58 299 81 l101 16 19 55 c18 52 44 85 61
74 4 -2 1 -23 -7 -46 -19 -54 -18 -60 8 -56 16 2 25 13 33 43 13 53 34 87 46
79 6 -3 7 -13 4 -23z m-998 -3 c12 -16 33 -89 33 -114 0 -16 -5 -14 -31 12
-35 36 -54 114 -27 114 9 0 20 -6 25 -12z m2462 -54 c31 -31 79 -73 106 -94
87 -65 99 -99 15 -44 -72 48 -65 9 9 -47 24 -19 56 -49 70 -68 l26 -34 -35 18
c-19 10 -47 26 -62 36 -14 11 -28 19 -31 19 -2 0 -7 -42 -10 -92 -6 -88 -29
-193 -47 -212 -5 -4 -6 55 -3 132 6 139 1 198 -17 187 -4 -3 -27 -33 -49 -66
-23 -34 -41 -55 -41 -46 0 27 30 100 54 132 21 28 23 34 11 60 -6 17 -24 45
-39 63 -31 36 -48 112 -26 112 7 0 38 -25 69 -56z m-1909 -276 c0 -5 -14 -8
-31 -8 -20 0 -29 -4 -27 -12 5 -14 29 -23 93 -35 l40 -7 -37 -4 c-21 -2 -38
-7 -38 -11 0 -5 12 -34 26 -65 14 -31 24 -62 21 -69 -2 -6 -16 13 -29 43 -27
58 -60 96 -77 86 -5 -3 -13 -20 -16 -38 -6 -24 -9 -28 -16 -16 -5 10 -4 29 3
48 13 39 2 51 -68 71 -24 7 -44 17 -44 20 0 4 45 7 100 6 55 -1 100 -5 100 -9z
m-120 -65 c-1 -5 -7 -19 -15 -33 -10 -18 -14 -20 -15 -8 0 23 11 48 21 48 5 0
9 -3 9 -7z"/>
<path d="M3107 4918 c-4 -79 -7 -217 -6 -308 0 -150 3 -249 25 -705 7 -149 7
-151 -24 -250 -65 -213 -82 -295 -92 -455 -5 -85 -15 -240 -22 -345 -14 -225
-16 -447 -5 -680 8 -164 3 -225 -20 -232 -15 -5 -31 119 -38 292 -4 82 -12
172 -18 200 -7 31 -11 165 -12 350 0 214 -4 312 -13 342 -11 38 -11 47 7 82
11 21 23 59 26 83 11 78 15 87 45 103 24 12 29 21 25 38 -5 21 2 84 24 227 19
119 65 856 59 949 l-3 46 -13 -65 c-26 -137 -51 -364 -66 -601 -9 -136 -19
-254 -22 -263 -3 -9 -15 -16 -25 -16 -24 0 -24 31 -4 305 18 236 28 319 61
520 54 323 69 475 48 482 -18 6 -23 -18 -54 -252 -16 -121 -40 -281 -54 -355
-14 -74 -34 -245 -45 -380 -28 -328 -19 -300 -94 -300 -34 0 -71 -3 -83 -6
-31 -8 -85 46 -82 83 4 55 -22 66 -90 38 -49 -21 -79 -51 -108 -107 -23 -45
-41 -65 -50 -56 -11 11 62 129 97 157 47 38 49 51 9 51 l-30 0 0 84 c0 47 -4
87 -9 90 -5 4 -21 2 -34 -3 -20 -8 -29 -6 -41 8 -9 10 -16 24 -16 32 0 24
-110 69 -168 69 -29 0 -52 4 -52 9 0 20 47 59 90 75 69 25 79 33 57 50 -9 7
-40 17 -68 20 -50 7 -51 7 -35 29 35 47 77 147 74 174 -3 28 -4 28 -78 31 -85
3 -150 -16 -187 -56 -22 -24 -23 -24 -50 -7 -16 11 -28 14 -30 8 -2 -6 -17
-31 -34 -57 l-29 -47 -35 37 c-19 20 -35 43 -35 50 0 28 -23 24 -74 -14 -46
-35 -107 -109 -119 -145 -2 -6 -19 1 -40 17 -21 16 -41 26 -44 22 -15 -15 -15
-125 1 -179 23 -78 21 -80 -24 -57 -42 21 -70 26 -70 11 0 -26 26 -70 75 -126
30 -34 55 -65 55 -68 0 -2 -16 -1 -35 3 -44 10 -44 8 -1 -113 19 -52 32 -97
29 -101 -11 -10 -60 33 -77 68 -9 20 -16 59 -16 95 0 65 -24 141 -45 141 -7 0
-20 -28 -30 -65 -27 -99 -39 -82 -29 38 13 144 9 229 -12 272 -23 48 -39 53
-73 21 l-28 -27 -6 68 c-8 81 -51 177 -82 181 -14 1 -32 -15 -62 -58 -24 -33
-46 -60 -50 -60 -5 1 -26 26 -48 56 -34 49 -130 133 -139 123 -2 -2 -11 -19
-20 -36 -18 -37 -19 -37 -47 -23 -10 6 -38 15 -61 20 -24 4 -52 11 -64 15 -25
8 -40 -21 -50 -93 l-6 -50 -79 29 c-44 16 -84 29 -90 29 -11 0 -8 -51 5 -81 6
-13 -9 -18 -91 -32 -54 -10 -124 -17 -155 -17 -32 0 -58 -4 -58 -8 0 -15 57
-97 89 -126 17 -17 31 -33 31 -37 0 -4 -20 -15 -45 -25 -25 -9 -45 -22 -45
-29 0 -14 58 -40 113 -50 21 -4 39 -11 42 -15 3 -5 -6 -32 -20 -62 -37 -80
-36 -83 45 -97 39 -7 70 -15 70 -18 0 -3 -13 -18 -30 -33 -46 -43 -40 -66 20
-84 27 -8 81 -18 119 -22 l71 -7 -17 -28 c-28 -47 -10 -54 127 -53 l118 1 -14
-22 -15 -23 126 -4 c137 -4 170 -17 189 -72 17 -47 -5 -55 -77 -27 -34 13
-100 34 -147 46 -78 20 -86 21 -93 6 -13 -26 10 -70 48 -92 44 -26 46 -43 2
-34 -44 10 -45 11 -69 62 -36 76 -127 111 -162 61 -21 -29 -20 -97 0 -148 18
-46 13 -61 -13 -38 -31 27 -100 58 -162 72 l-60 14 -7 -33 c-10 -56 20 -118
70 -145 14 -7 26 -17 26 -22 0 -16 -41 -7 -97 22 -34 17 -77 31 -103 32 l-45
3 -3 -48 c-2 -27 3 -70 11 -97 8 -27 12 -52 9 -55 -3 -3 -36 -5 -74 -5 -79 0
-83 -6 -43 -74 26 -44 24 -56 -7 -56 -30 0 -98 -68 -98 -100 0 -26 3 -27 61
-34 34 -3 86 -6 115 -6 30 0 55 -4 55 -10 1 -5 2 -15 3 -20 2 -20 31 -29 76
-23 60 8 93 28 132 82 37 52 45 43 24 -29 -11 -36 -12 -58 -6 -76 9 -22 14
-24 47 -18 69 13 87 25 185 125 53 54 102 99 108 99 14 0 70 -41 70 -52 0 -4
-10 -8 -22 -8 -54 0 -104 -23 -146 -67 -40 -41 -42 -46 -26 -57 16 -12 13 -17
-25 -51 -53 -48 -89 -114 -69 -126 7 -5 46 -9 86 -9 l72 0 0 -32 c0 -57 11
-63 69 -38 28 12 72 38 98 56 l48 34 3 -35 c3 -27 8 -35 23 -35 28 0 101 71
150 146 l43 66 18 -24 c9 -12 18 -26 18 -30 1 -29 27 8 74 105 64 130 131 237
147 237 7 0 8 -7 4 -17 -23 -56 -29 -73 -24 -77 3 -3 40 4 83 15 43 11 88 19
100 17 17 -2 13 -8 -25 -30 -25 -15 -65 -48 -89 -75 -38 -41 -42 -48 -26 -51
11 -2 37 2 58 9 44 14 58 7 36 -18 -37 -43 -60 -114 -40 -127 13 -8 114 19
160 43 24 12 46 21 48 19 1 -2 -8 -34 -21 -71 -14 -37 -25 -82 -25 -99 l0 -30
66 7 67 7 -7 -51 c-15 -115 16 -134 81 -50 47 60 52 62 96 44 17 -7 18 -3 11
65 l-7 73 30 -18 c56 -33 71 -5 63 118 -2 39 14 33 29 -10 7 -21 39 -92 71
-158 56 -115 81 -151 232 -333 53 -63 58 -75 68 -138 5 -38 10 -92 10 -120 0
-45 -3 -52 -26 -63 -15 -6 -28 -10 -31 -8 -2 3 -9 26 -16 53 -16 64 -34 66
-92 13 -27 -25 -49 -39 -53 -33 -30 44 -67 84 -77 84 -8 0 -30 -27 -50 -60
-20 -33 -41 -60 -46 -60 -6 0 -23 7 -39 15 -28 14 -30 14 -42 -7 -7 -13 -12
-49 -12 -80 -1 -55 -2 -58 -26 -58 -47 0 -53 11 -40 80 6 34 9 64 6 67 -2 3
-21 0 -40 -7 -45 -15 -52 -10 -60 41 -7 46 -76 209 -88 209 -4 0 -12 -9 -18
-20 -16 -31 -27 -24 -46 27 -24 64 -47 106 -62 111 -7 2 -28 -12 -47 -31 l-35
-35 -94 64 c-100 68 -117 75 -114 46 4 -56 -3 -103 -18 -109 -29 -11 -124 18
-159 48 -39 35 -48 28 -33 -29 16 -63 8 -72 -58 -72 -44 0 -68 6 -101 26 -25
14 -47 24 -49 21 -7 -6 23 -109 48 -168 l19 -47 -25 -51 c-14 -27 -26 -53 -26
-56 0 -3 26 -5 57 -5 44 0 54 -3 45 -12 -9 -9 -3 -16 25 -32 43 -24 44 -37 4
-51 -40 -14 -46 -22 -31 -40 18 -21 98 -75 113 -75 7 -1 22 -6 35 -13 l23 -13
-21 -19 c-11 -10 -20 -22 -20 -26 0 -13 76 -49 103 -49 26 0 87 -19 87 -27 0
-10 -46 -42 -60 -43 -8 0 -78 32 -155 70 -76 39 -143 70 -147 70 -4 0 -11 -18
-14 -40 -10 -63 -21 -66 -120 -31 -48 16 -92 27 -97 24 -4 -3 -5 -34 -2 -69
l7 -64 -63 0 c-34 0 -91 -5 -126 -11 -74 -13 -76 -17 -34 -104 28 -57 28 -60
10 -69 -11 -5 -51 -3 -106 7 -48 9 -89 14 -92 12 -2 -3 5 -29 17 -58 12 -29
22 -55 22 -59 0 -4 -18 -17 -40 -29 -40 -23 -125 -124 -111 -133 4 -3 52 -12
106 -21 55 -9 100 -17 102 -19 2 -2 -8 -27 -21 -56 -14 -30 -23 -56 -21 -60 2
-3 43 -2 90 3 114 11 119 9 113 -55 l-5 -51 85 7 c47 3 95 9 108 12 22 6 24 3
24 -29 0 -26 5 -37 19 -42 11 -3 24 -12 30 -19 9 -11 -2 -21 -56 -51 -37 -20
-70 -39 -72 -41 -2 -2 13 -22 33 -44 20 -22 36 -46 36 -53 0 -7 -13 -23 -29
-35 -38 -27 -91 -138 -91 -187 0 -34 2 -37 23 -31 62 19 214 56 228 56 8 0 25
-20 37 -46 l22 -45 53 37 c28 21 63 46 76 56 l24 18 35 -62 c19 -35 36 -64 37
-66 2 -2 17 4 34 13 29 15 141 139 141 157 0 18 38 6 73 -23 20 -17 45 -29 55
-27 22 4 62 83 62 125 0 44 13 42 35 -7 10 -22 21 -40 24 -40 3 0 18 14 32 31
28 34 49 32 49 -4 1 -28 36 -107 49 -107 5 0 16 19 24 42 l14 43 20 -46 c24
-54 75 -114 114 -135 41 -20 45 -18 41 21 -5 39 15 48 39 19 23 -28 107 -64
178 -76 39 -7 73 -9 77 -6 3 4 -1 28 -10 54 -27 80 -25 84 44 84 76 0 76 7 10
112 -27 43 -50 81 -50 85 0 3 27 3 60 0 59 -5 61 -4 54 16 -7 23 -58 102 -100
154 l-25 31 35 13 c20 7 36 16 36 21 0 10 -78 61 -128 83 -85 37 -124 111
-106 198 12 56 28 57 144 4 95 -43 176 -98 275 -189 28 -26 105 -89 170 -140
65 -51 121 -100 125 -108 5 -8 24 -50 44 -92 31 -65 48 -86 106 -134 38 -32
72 -64 76 -73 3 -9 16 -59 29 -112 33 -133 53 -179 77 -179 24 0 20 23 -29
195 -36 126 -61 215 -70 253 -10 42 48 20 65 -25 6 -15 13 -68 16 -118 6 -88
29 -193 61 -267 13 -32 20 -38 45 -38 l29 0 -25 72 c-46 135 -69 333 -41 344
14 5 248 -81 321 -118 68 -34 162 -105 193 -145 16 -21 44 -64 63 -96 29 -47
39 -57 62 -57 26 0 27 2 17 27 -22 59 -60 112 -123 171 -132 123 -248 186
-476 259 -85 28 -191 68 -235 90 -44 22 -97 46 -117 52 -62 20 -146 82 -313
231 -173 153 -235 194 -389 252 -55 21 -104 42 -110 48 -14 14 -26 12 -26 -4
0 -7 -8 -20 -17 -27 -15 -12 -16 -12 -9 6 24 60 12 71 -59 55 -92 -21 -278
-28 -345 -14 -112 23 -248 34 -470 36 l-215 3 -174 -38 c-96 -21 -202 -47
-235 -58 -34 -10 -70 -19 -80 -19 -16 0 -17 -3 -8 -12 10 -10 35 -7 120 15 59
15 156 36 216 47 218 39 245 39 786 -17 135 -14 262 -23 283 -20 29 4 37 2 37
-10 0 -22 -200 -211 -282 -265 -82 -55 -260 -132 -409 -178 -121 -38 -173 -62
-249 -119 -53 -40 -129 -135 -117 -147 3 -3 33 16 66 43 107 87 186 127 371
187 276 89 402 162 593 345 60 57 112 100 117 95 4 -5 0 -52 -11 -104 -10 -52
-22 -134 -25 -181 -10 -128 4 -171 92 -290 41 -54 79 -99 85 -99 11 0 6 11
-26 55 -56 77 -105 206 -105 280 0 64 39 328 50 339 7 7 10 -4 10 -31 0 -27
11 -63 33 -105 29 -57 39 -66 105 -103 39 -22 72 -43 72 -47 0 -4 -12 -11 -27
-14 -51 -12 -55 -24 -20 -52 58 -46 117 -106 117 -118 0 -19 -39 -23 -82 -8
-22 8 -51 14 -64 14 -22 0 -21 -4 25 -68 69 -97 93 -139 82 -146 -5 -4 -29 -2
-53 3 -23 6 -44 8 -46 6 -2 -2 3 -27 12 -56 20 -70 12 -79 -57 -67 -61 11
-115 43 -152 93 -30 39 -45 38 -45 -4 0 -16 -6 -34 -14 -40 -12 -10 -20 -6
-43 19 -35 39 -51 82 -53 140 l-1 45 -29 -34 c-45 -53 -60 -38 -60 59 0 98
-12 103 -64 25 -20 -30 -40 -55 -44 -55 -5 0 -23 21 -40 46 -41 58 -57 48 -67
-39 -8 -71 -20 -107 -34 -107 -6 0 -21 18 -33 40 -13 22 -28 40 -33 40 -6 0
-48 -38 -95 -85 -47 -47 -88 -85 -92 -85 -10 0 -24 32 -38 88 -17 66 -43 58
-128 -35 -50 -55 -74 -74 -86 -70 -23 9 -20 47 9 102 l26 47 -27 -6 c-15 -4
-47 -25 -72 -47 -40 -35 -78 -52 -138 -61 -11 -2 -22 0 -23 5 -7 22 39 107 77
145 24 24 42 46 39 49 -3 2 -20 12 -39 21 -18 10 -34 24 -36 33 -5 26 54 62
109 67 30 3 50 10 54 20 7 19 7 18 -40 34 -53 18 -54 32 -3 47 24 7 64 24 89
37 32 16 49 20 57 12 20 -20 71 2 109 47 34 41 38 43 57 29 24 -17 36 -18 36
-4 0 11 -59 50 -76 50 -6 0 -22 -16 -35 -35 -25 -36 -57 -50 -44 -17 4 9 10
30 13 47 6 34 9 36 -91 -48 -59 -51 -163 -94 -181 -76 -6 5 -4 25 3 50 7 22
11 43 8 45 -2 2 -29 -7 -59 -20 -75 -33 -153 -55 -166 -47 -8 5 -7 20 3 55 8
27 15 53 15 57 0 4 -21 1 -47 -7 -52 -16 -149 -19 -157 -5 -9 14 31 58 74 82
55 31 37 39 -88 39 -137 0 -172 19 -119 67 31 28 66 46 106 52 43 7 49 23 17
41 -24 12 -41 38 -32 47 2 2 39 7 83 9 144 9 170 18 118 42 -16 7 -33 30 -46
58 -11 26 -18 48 -17 49 35 29 94 32 161 9 26 -9 59 -13 72 -10 24 6 25 9 19
61 l-7 55 66 0 c62 0 68 -2 112 -40 53 -46 46 -43 81 -30 l27 11 -31 32 c-38
39 -54 97 -28 97 26 0 76 -29 124 -71 36 -31 119 -79 137 -79 3 0 5 7 5 15 0
18 2 18 49 4 26 -8 44 -7 66 1 l30 12 -37 19 c-20 10 -39 23 -42 27 -3 5 8 28
25 50 l31 42 -62 0 c-64 0 -147 16 -155 31 -5 8 18 16 113 39 36 9 41 14 32
25 -8 9 -30 14 -59 14 -26 -1 -62 2 -81 6 -45 9 -125 55 -113 65 4 4 31 15 60
24 56 19 65 46 14 46 -36 0 -71 26 -71 54 0 19 -7 24 -47 32 -63 12 -72 40
-16 49 21 4 47 10 58 14 17 7 14 9 -16 15 -43 8 -76 41 -85 83 -6 30 -4 32 32
41 80 20 91 21 110 8 27 -19 64 -26 64 -13 0 6 -9 21 -21 33 -31 33 -16 47 43
42 34 -4 60 -14 86 -35 63 -50 62 -50 56 14 -4 42 -2 63 9 77 14 19 15 18 55
-14 36 -29 82 -102 82 -130 0 -5 5 -10 10 -10 6 0 10 14 10 31 0 37 35 99 56
99 16 0 37 -46 68 -152 12 -43 25 -80 28 -83 3 -3 16 11 29 31 l23 38 22 -50
c17 -36 23 -69 23 -127 1 -95 17 -110 63 -56 l29 34 -7 -55 c-7 -64 -7 -53 -5
-112 1 -42 5 -49 30 -63 17 -8 37 -12 45 -9 19 7 30 45 24 79 -6 30 -4 31 39
4 19 -12 37 -19 40 -15 3 3 1 23 -5 45 -34 113 6 146 69 55 16 -24 34 -44 39
-44 15 0 12 36 -6 78 -18 43 -12 86 15 122 27 34 42 18 72 -75 13 -41 27 -75
30 -75 3 0 19 30 34 68 34 82 42 92 62 85 13 -5 14 -18 9 -75 -4 -39 -3 -68 2
-68 5 0 32 23 59 50 46 45 54 50 96 50 47 0 72 -16 40 -26 -113 -33 -209 -125
-292 -281 -116 -216 -207 -343 -245 -343 -38 0 -137 56 -215 122 -129 109
-271 291 -376 481 -41 74 -89 123 -169 171 -104 62 -104 45 -1 -44 85 -73 114
-111 175 -225 51 -95 55 -101 144 -230 136 -196 254 -293 438 -360 27 -10 38
-11 41 -2 2 8 27 1 73 -20 38 -17 80 -34 94 -38 37 -11 157 -72 220 -113 63
-40 134 -99 270 -225 81 -75 115 -98 232 -157 84 -43 172 -79 230 -95 347 -94
373 -105 517 -213 46 -34 91 -67 101 -72 10 -5 48 -54 84 -107 95 -143 95
-143 158 -143 l54 0 -76 78 c-101 102 -116 126 -260 407 -68 132 -143 277
-166 323 -52 102 -114 183 -286 378 -173 195 -202 231 -268 330 -30 45 -127
165 -215 265 -88 100 -198 235 -245 300 -87 119 -126 169 -250 319 -51 61 -92
127 -146 233 -41 81 -72 152 -69 157 3 6 13 10 21 10 27 0 -25 76 -83 122 -29
24 -53 46 -53 51 0 4 6 5 13 1 75 -44 143 -131 183 -236 15 -40 42 -102 59
-138 45 -90 235 -348 368 -499 60 -69 149 -175 196 -235 47 -60 118 -145 156
-189 39 -44 96 -116 129 -161 85 -118 179 -227 338 -393 287 -300 354 -388
450 -592 74 -155 150 -272 233 -355 47 -47 66 -75 75 -107 6 -24 13 -50 15
-57 3 -6 21 -12 41 -12 34 0 36 2 31 28 -2 15 -19 117 -35 227 -17 110 -47
272 -66 360 -32 145 -42 173 -103 294 -37 73 -99 181 -136 240 -79 123 -277
511 -341 668 -73 180 -112 317 -207 728 -114 492 -143 627 -165 755 -23 131
-32 208 -65 525 -10 97 -25 396 -35 700 -3 83 -1 231 4 330 9 171 6 205 -18
205 -4 0 -10 -64 -13 -142z m-2329 -549 c37 -73 58 -139 77 -239 3 -17 20 -34
52 -52 26 -15 63 -37 82 -50 l34 -22 -6 75 c-3 41 -9 87 -13 103 -10 42 13 24
37 -28 12 -26 19 -65 19 -106 0 -74 0 -73 60 -121 78 -61 74 -63 67 37 -4 49
-10 104 -13 123 -11 56 16 33 42 -35 18 -46 21 -71 17 -116 -3 -31 -3 -68 1
-82 3 -14 41 -65 84 -114 43 -48 127 -147 186 -219 59 -73 111 -133 114 -133
21 0 36 55 43 160 9 139 31 266 53 308 23 44 20 67 -19 189 -19 59 -35 114
-35 121 0 23 20 12 26 -15 9 -38 49 -117 67 -131 11 -10 20 1 50 62 l37 73
-19 44 c-26 58 -37 119 -22 119 6 0 11 -3 11 -7 0 -5 17 -28 38 -52 l38 -44
77 96 c43 53 82 97 87 97 22 0 7 -29 -55 -105 -72 -89 -71 -97 15 -89 52 5 54
4 35 -11 -21 -17 -106 -45 -136 -45 -10 0 -30 -17 -44 -37 -32 -48 -27 -49
106 -28 56 9 104 13 107 11 17 -17 -151 -66 -225 -66 -31 0 -36 -4 -54 -44
-10 -24 -22 -57 -25 -74 -5 -26 -3 -30 25 -35 17 -4 51 -4 75 -1 27 4 46 2 50
-5 10 -16 -28 -29 -105 -36 l-66 -6 -11 -62 c-6 -34 -19 -123 -28 -197 -13
-102 -22 -145 -40 -176 -27 -46 -27 -48 48 -107 l47 -37 -15 -41 c-18 -52 -19
-173 -1 -186 6 -5 38 -17 69 -27 55 -16 118 -58 118 -77 0 -5 -22 2 -50 16
-54 27 -120 34 -120 12 0 -8 25 -71 56 -141 63 -144 72 -186 52 -236 l-14 -34
-12 84 c-9 63 -22 106 -52 168 -23 45 -47 82 -54 82 -7 0 -34 -16 -60 -36 -26
-20 -50 -34 -52 -31 -10 10 15 45 57 81 l41 35 -23 95 c-13 53 -26 96 -29 96
-3 0 -21 -16 -40 -35 -19 -19 -37 -35 -41 -35 -18 0 15 61 52 94 33 32 39 43
39 78 0 39 -5 47 -84 122 -46 45 -92 95 -104 111 -20 29 -23 30 -121 35 -59 3
-106 11 -113 18 -9 9 6 12 74 12 48 0 89 4 92 8 8 14 -107 133 -129 133 -11 0
-47 -3 -80 -6 -64 -7 -135 9 -143 33 -3 9 17 12 75 13 131 1 131 3 32 104
l-86 88 -39 -14 c-39 -14 -226 -16 -265 -4 -41 13 -15 22 96 33 125 12 155 21
133 39 -7 6 -73 48 -147 92 -119 72 -138 81 -165 74 -79 -20 -286 18 -286 52
0 18 -4 18 45 0 45 -16 155 -20 155 -6 0 5 -72 33 -160 61 -88 28 -160 56
-160 62 0 6 9 7 23 3 12 -4 66 -13 120 -21 79 -11 122 -24 223 -69 68 -30 127
-55 131 -55 16 0 -9 106 -46 190 -54 120 -58 134 -40 128 8 -2 33 -42 57 -89z
m1580 -313 c9 -20 8 -25 -4 -30 -22 -8 -22 -8 -34 14 -6 11 -8 25 -5 30 11 18
31 11 43 -14z m-73 -26 l29 -30 -25 -26 c-28 -30 -80 -59 -127 -69 -31 -6 -32
-8 -18 -24 9 -10 16 -23 16 -29 0 -16 -53 -42 -85 -42 -46 0 -89 -26 -147 -88
-58 -63 -75 -73 -84 -49 -18 48 101 143 209 167 l58 13 -32 33 c-35 36 -34 37
56 50 54 7 99 24 130 49 19 15 19 15 -3 31 -21 15 -30 44 -14 44 5 0 21 -13
37 -30z m-1430 -29 c-12 -20 -109 -32 -180 -21 -39 5 -74 10 -78 10 -5 0 -5 5
-2 10 4 6 60 10 136 10 78 0 128 -4 124 -9z m1795 -282 c0 -9 -39 -23 -47 -16
-2 3 1 15 7 27 9 17 14 19 26 9 8 -6 14 -15 14 -20z m-503 -61 c-59 -84 -82
-128 -65 -128 7 0 45 7 83 15 96 20 232 19 335 -4 106 -23 322 -80 328 -86 3
-2 -4 -8 -14 -12 -10 -4 -63 5 -124 21 -138 37 -234 55 -295 56 l-50 0 35 -21
c35 -21 60 -46 60 -61 0 -13 -69 -9 -98 6 -15 8 -34 26 -42 40 -15 29 -25 30
-120 16 -135 -21 -141 -33 -45 -86 57 -32 58 -33 35 -42 -44 -17 -94 12 -117
66 -12 30 -17 33 -41 28 -37 -9 -137 -59 -194 -96 -35 -23 -56 -30 -83 -28
-19 2 -36 6 -38 11 -1 4 48 29 108 56 207 91 207 90 220 142 6 25 21 58 33 74
24 31 123 107 130 101 2 -3 -16 -33 -41 -68z m813 -30 c0 -64 -17 -128 -33
-128 -7 1 -28 9 -47 20 l-35 19 33 11 c31 12 32 13 32 71 0 56 1 59 25 59 23
0 25 -3 25 -52z m-100 25 c0 -5 -5 -15 -10 -23 -7 -12 -12 -12 -22 -2 -10 10
-10 15 2 22 18 12 30 13 30 3z m290 -60 c0 -27 -11 -90 -25 -142 -14 -51 -27
-117 -30 -145 -4 -28 -11 -69 -16 -91 -6 -23 -14 -322 -18 -700 -8 -658 -8
-660 -33 -744 l-24 -84 -21 27 c-12 15 -25 40 -28 57 -7 29 -4 37 51 139 20
38 21 85 13 605 -4 246 14 616 37 799 9 67 29 160 45 207 16 48 29 94 29 103
0 9 5 16 10 16 6 0 10 -21 10 -47z m20 -197 c0 -18 -8 -55 -17 -82 -17 -46
-18 -47 -21 -19 -5 39 18 146 29 139 5 -3 9 -20 9 -38z m-2356 -11 c18 -13 54
-34 80 -45 46 -21 53 -21 194 -9 212 17 559 -7 529 -37 -2 -3 -114 -9 -247
-14 -491 -20 -640 -54 -900 -210 -161 -97 -304 -170 -331 -170 -26 0 61 60
208 144 40 22 73 44 73 48 0 3 -20 14 -45 24 -50 19 -85 55 -85 88 0 18 6 15
38 -21 44 -47 100 -68 149 -54 17 5 61 27 98 49 37 23 72 43 79 45 16 6 -21
45 -64 67 -39 20 -84 59 -77 67 7 7 161 -73 176 -91 18 -22 49 -20 118 5 73
27 81 34 52 49 -30 16 -68 50 -80 73 -13 23 -4 21 35 -8z m2004 -14 c10 -6 9
-10 -7 -14 -25 -6 -61 2 -61 14 0 11 51 11 68 0z m-198 -21 c15 -11 48 -28 73
-39 42 -18 46 -23 51 -63 11 -91 27 -390 30 -558 2 -106 16 -287 34 -460 17
-156 28 -288 24 -292 -5 -5 -23 11 -40 35 -18 23 -41 48 -52 55 -11 7 -20 21
-20 33 0 65 -74 341 -100 374 -33 40 -114 328 -125 440 -4 39 -9 77 -11 86 -3
12 5 20 26 27 16 6 30 14 30 17 0 3 -19 26 -41 50 -36 39 -39 45 -23 51 61 19
60 19 19 47 -23 16 -53 27 -72 27 -39 0 -80 32 -100 78 -7 18 -24 37 -37 42
-33 12 -42 40 -13 40 32 -1 53 -21 61 -56 11 -50 52 -80 104 -75 6 0 12 8 12
16 0 22 11 19 54 -17 33 -27 51 -33 109 -40 93 -10 105 -2 68 42 -64 79 -101
132 -101 146 0 19 7 18 40 -6z m270 -7 c-1 -18 -18 -35 -24 -24 -4 6 -4 16 -1
21 7 12 25 13 25 3z m-859 -29 c-30 -13 -51 -28 -47 -32 4 -4 60 -7 124 -7 76
0 116 -4 119 -11 2 -7 -14 -14 -38 -18 l-42 -7 59 -35 c79 -47 204 -142 204
-154 0 -18 -19 -10 -117 52 -152 96 -304 153 -467 175 -92 12 -85 33 12 33 51
0 90 5 108 15 16 8 54 15 84 14 l55 0 -54 -25z m797 -24 c1 -19 11 -87 22
-151 15 -87 20 -152 18 -265 -7 -364 4 -602 37 -829 21 -147 25 -237 11 -232
-21 6 -46 72 -46 122 0 64 -17 293 -36 465 -8 74 -17 250 -20 390 -5 232 -30
500 -50 532 -4 5 7 8 27 6 31 -3 34 -6 37 -38z m326 -196 c-26 -96 -27 -110
-35 -499 -8 -399 -15 -515 -29 -515 -10 0 -2 632 11 800 9 127 31 252 61 351
l13 44 3 -41 c2 -22 -9 -84 -24 -140z m-1489 158 c-6 -5 -32 -17 -58 -26 -56
-21 -143 -84 -352 -256 -168 -138 -227 -178 -330 -226 -82 -38 -212 -76 -220
-65 -2 5 69 45 158 89 91 45 182 98 207 120 l45 40 -45 21 c-25 11 -55 21 -67
21 -37 0 -36 19 2 26 32 6 76 -4 136 -30 11 -5 45 17 110 71 52 43 96 83 98
88 2 6 -18 21 -45 35 l-49 25 33 3 c19 2 51 -3 72 -12 l38 -15 78 50 c71 45
84 49 138 49 33 0 56 -4 51 -8z m458 -109 c15 -15 27 -37 27 -50 0 -32 -13
-29 -26 5 -7 18 -28 38 -54 53 -24 13 -45 30 -48 37 -6 20 67 -13 101 -45z
m-190 36 c14 -6 35 -32 48 -61 13 -27 41 -66 63 -86 37 -32 41 -34 44 -17 8
41 21 36 47 -19 26 -55 76 -103 95 -91 5 3 10 21 10 40 0 31 14 54 26 42 3 -3
22 -72 43 -153 71 -274 98 -338 171 -404 18 -16 34 -46 44 -82 24 -83 21 -90
-18 -53 -74 70 -209 293 -265 438 -41 108 -73 159 -128 204 -26 21 -69 61 -96
88 -27 28 -79 70 -115 95 -36 25 -68 51 -70 58 -5 16 67 17 101 1z m-1123 -9
c0 -18 -81 -175 -102 -197 -18 -20 -48 -31 -48 -19 0 7 92 171 112 199 19 27
38 36 38 17z m280 -67 c-19 -33 -70 -60 -142 -74 -103 -21 -113 9 -22 61 30
17 76 39 102 49 41 17 49 17 62 5 13 -13 13 -18 0 -41z m2145 -8 c25 -88 123
-522 165 -735 30 -153 56 -244 118 -425 87 -251 206 -533 270 -637 23 -37 53
-91 68 -120 14 -29 51 -93 82 -143 68 -110 121 -226 150 -325 20 -68 69 -437
59 -446 -8 -8 -124 165 -167 251 -84 166 -248 372 -570 715 -80 85 -176 193
-215 239 -38 46 -89 106 -113 133 -46 53 -45 43 -15 163 8 33 26 123 39 200
60 352 64 399 50 705 -7 151 -5 202 8 280 15 91 43 200 51 200 2 0 11 -25 20
-55z m-761 -247 c14 -94 39 -187 106 -393 86 -263 107 -345 91 -345 -17 0 -28
26 -34 75 -3 28 -42 159 -87 293 -53 160 -87 282 -100 358 -24 137 -23 134 -7
134 8 0 18 -39 31 -122z m-88 -44 c18 -65 47 -159 63 -208 17 -49 29 -91 28
-93 -2 -1 -13 7 -24 20 -27 30 -79 180 -103 301 -24 116 -23 109 -8 104 6 -2
26 -58 44 -124z m38 29 c10 -43 49 -175 86 -293 86 -271 104 -339 96 -347 -13
-13 -24 15 -76 202 -29 105 -66 228 -82 275 -25 75 -58 204 -58 231 0 5 4 9 8
9 5 0 17 -35 26 -77z m110 -826 c4 -27 3 -47 -2 -47 -10 0 -23 73 -21 119 l1
26 7 -25 c5 -14 11 -47 15 -73z m113 -60 c45 -56 55 -78 87 -191 35 -120 39
-153 16 -130 -10 10 -64 164 -80 232 -11 41 -21 56 -68 94 -21 17 -31 58 -14
58 5 0 31 -28 59 -63z m-37 -67 c0 -5 -19 -22 -43 -39 -24 -16 -49 -36 -56
-45 -12 -14 -10 -16 18 -16 43 0 39 -14 -14 -44 -25 -15 -45 -31 -45 -35 0 -5
15 -14 33 -21 17 -6 41 -15 52 -20 16 -6 9 -10 -33 -19 -29 -6 -61 -11 -71
-11 -54 0 -104 -125 -65 -164 30 -31 65 -19 144 49 85 74 102 80 93 34 -8 -42
8 -50 84 -43 59 6 123 -7 123 -25 0 -4 -16 -13 -35 -19 -18 -7 -45 -26 -59
-42 -22 -27 -31 -30 -81 -30 -86 0 -202 -34 -359 -105 -129 -59 -186 -77 -186
-58 0 4 22 39 50 78 27 40 76 129 109 199 89 189 177 301 281 360 49 28 60 31
60 16z m56 -120 c19 -52 34 -103 34 -112 0 -12 -13 -21 -42 -28 -76 -19 -127
-41 -178 -76 -27 -19 -52 -34 -55 -34 -3 0 -5 11 -5 24 0 37 39 57 221 113
l27 8 -29 85 c-31 91 -36 124 -18 118 6 -2 27 -46 45 -98z m122 10 c14 -18 30
-68 43 -130 24 -116 21 -156 -6 -95 -27 62 -74 255 -62 255 2 0 13 -13 25 -30z
m-183 -46 c0 -15 -8 -20 -37 -22 -45 -4 -49 11 -10 32 33 18 47 15 47 -10z
m-685 -30 c0 -8 -4 -14 -10 -14 -5 0 -10 9 -10 21 0 11 5 17 10 14 6 -3 10
-13 10 -21z m1040 -191 c0 -48 1 -47 -35 -31 -23 10 -25 16 -25 77 l1 66 29
-35 c23 -26 30 -44 30 -77z m-166 61 c8 -21 10 -20 -51 -28 -62 -8 -79 8 -31
29 44 19 74 19 82 -1z m386 -304 c64 -81 147 -191 185 -245 38 -55 102 -143
142 -196 85 -113 130 -199 172 -329 17 -52 31 -96 31 -97 0 -1 -25 9 -55 23
-31 13 -62 24 -69 24 -7 0 -19 6 -25 14 -12 14 -207 90 -322 125 l-65 21 -53
167 c-28 93 -59 190 -67 216 -22 71 -44 248 -44 366 l0 104 26 -24 c15 -13 79
-89 144 -169z m-327 126 c4 -27 6 -51 3 -53 -4 -4 -87 39 -106 55 -11 9 54 53
73 50 17 -2 23 -13 30 -52z m91 38 c22 -8 23 -134 2 -134 -39 0 -46 11 -46 76
0 66 5 73 44 58z m-245 -64 c29 -5 73 -25 103 -45 29 -19 61 -35 71 -35 11 0
17 -5 14 -12 -3 -10 -28 -12 -92 -10 -68 2 -86 0 -83 -10 4 -11 19 -21 78 -48
25 -12 17 -25 -16 -28 -22 -2 -45 7 -83 33 -29 20 -55 34 -58 32 -10 -11 18
-46 54 -68 30 -19 34 -24 20 -27 -25 -5 -63 5 -79 21 -7 8 -28 31 -46 51 -25
29 -36 36 -45 27 -8 -8 -7 -19 6 -41 l18 -30 -37 0 c-21 0 -66 5 -101 11 -35
6 -67 8 -71 4 -4 -3 12 -22 36 -41 43 -36 59 -73 25 -59 -10 5 -63 24 -118 44
-124 45 -129 57 -42 105 35 20 69 36 76 36 7 0 47 16 89 36 68 32 167 61 213
63 9 1 39 -3 68 -9z m270 -132 c4 -13 11 -54 15 -93 11 -111 43 -270 81 -395
19 -63 32 -116 30 -119 -3 -2 -21 3 -40 12 -26 12 -35 23 -35 42 0 13 -9 66
-19 117 -39 186 -75 434 -65 449 9 16 24 9 33 -13z m-73 -74 c6 -32 17 -97 24
-143 7 -46 25 -136 41 -200 26 -112 27 -148 2 -133 -15 9 -88 301 -103 410 -6
46 -14 90 -17 99 -6 16 15 35 32 30 5 -2 14 -30 21 -63z m-272 -43 c22 -12 45
-50 98 -164 39 -81 68 -151 64 -154 -6 -6 -60 42 -215 191 -83 81 -111 118
-111 145 0 14 133 0 164 -18z m201 -4 c4 -19 5 -47 3 -63 -4 -28 -5 -27 -26
20 -24 52 -23 76 2 76 9 0 18 -13 21 -33z m-10 -149 c104 -219 118 -275 59
-225 -17 15 -36 44 -43 68 -7 24 -31 81 -53 128 -50 107 -68 157 -61 165 18
18 36 -7 98 -136z m168 -456 c9 -8 17 -28 17 -44 0 -26 -2 -28 -20 -18 -21 11
-80 86 -80 102 0 10 57 -17 83 -40z"/>
<path d="M1775 4540 c3 -5 11 -10 16 -10 6 0 7 5 4 10 -3 6 -11 10 -16 10 -6
0 -7 -4 -4 -10z"/>
<path d="M3935 2886 c7 -33 56 -108 83 -128 29 -21 134 -139 129 -144 -3 -3
-28 7 -57 21 -29 14 -54 24 -57 22 -6 -7 43 -40 107 -72 59 -30 79 -50 80 -77
0 -26 -22 -22 -101 18 -39 19 -73 33 -76 31 -8 -8 54 -47 131 -82 40 -18 76
-37 79 -42 12 -20 19 -83 8 -83 -5 0 -48 25 -93 57 -46 31 -103 65 -128 76
-45 20 -110 38 -110 31 0 -2 28 -18 62 -35 35 -18 108 -63 162 -100 55 -38
105 -69 113 -69 7 0 18 -12 23 -26 10 -26 14 -74 5 -74 -2 0 -26 14 -52 30
-50 32 -63 36 -63 20 0 -6 24 -25 53 -44 55 -36 87 -67 106 -103 15 -30 14
-38 -4 -23 -9 7 -18 11 -20 8 -11 -10 7 -36 32 -47 41 -19 153 -123 153 -143
0 -14 -8 -18 -40 -18 -22 0 -40 4 -40 8 0 8 -71 64 -109 86 -9 5 1 -9 22 -32
20 -23 37 -46 37 -50 0 -17 -66 2 -100 28 -19 15 -46 33 -60 40 -20 10 -18 5
13 -27 20 -21 37 -42 37 -46 0 -17 -42 -4 -113 33 -88 47 -126 54 -49 9 28
-17 52 -34 52 -39 0 -14 -58 -22 -79 -11 -24 14 -121 14 -121 2 0 -6 19 -11
42 -13 23 -2 43 -8 45 -15 3 -7 -17 -23 -44 -37 -66 -34 -41 -32 47 4 40 17
77 30 81 30 18 0 8 -17 -17 -29 -15 -6 -24 -14 -21 -17 3 -3 32 8 66 25 58 30
129 42 116 21 -4 -6 -32 -24 -63 -40 -74 -40 -27 -27 62 16 98 48 107 32 16
-27 -28 -18 -48 -34 -46 -37 7 -7 90 34 135 66 26 19 49 28 59 25 12 -5 4 -17
-39 -56 -41 -37 -47 -45 -24 -34 17 9 48 31 70 51 36 34 75 47 75 27 0 -5 -21
-28 -46 -50 -70 -62 -34 -49 41 14 35 30 72 55 82 55 35 0 45 16 19 28 -54 24
-106 83 -121 137 -14 47 -14 61 -1 121 30 144 67 209 156 271 35 25 22 36 -16
13 -19 -12 -37 -20 -40 -17 -10 10 16 47 44 61 36 19 128 114 119 123 -4 3
-22 -7 -40 -24 -41 -39 -78 -63 -95 -63 -26 0 -1 64 44 112 46 50 58 76 26 59
-10 -5 -24 -17 -32 -25 -23 -29 -31 -17 -29 44 3 102 -7 89 -42 -49 -12 -50
-22 -46 -44 20 l-15 44 5 -48 c3 -26 14 -69 26 -96 18 -42 19 -54 9 -90 -12
-46 -22 -45 -51 3 -25 41 -24 21 2 -42 21 -50 21 -53 4 -79 l-18 -27 -19 38
c-25 49 -32 41 -13 -14 16 -45 18 -93 6 -123 -9 -24 -23 -8 -40 46 -7 20 -17
37 -23 37 -15 0 -4 -57 20 -111 19 -42 36 -209 21 -209 -4 0 -28 50 -54 111
l-48 110 11 94 c14 114 15 118 2 110 -5 -3 -10 -17 -10 -30 0 -13 -5 -36 -11
-52 -10 -26 -12 -27 -19 -8 -5 11 -7 63 -4 115 l4 95 -16 -48 c-9 -27 -19 -46
-22 -42 -4 3 -9 48 -12 98 -4 60 -9 85 -14 72 -4 -11 -11 -29 -15 -39 -6 -17
-10 -16 -28 15 -11 19 -23 52 -26 75 -6 48 -42 134 -55 134 -6 0 -6 -14 -1
-37 5 -21 12 -51 16 -68 l6 -29 -39 31 c-39 30 -101 96 -157 164 l-28 34 6
-29z"/>
<path d="M6788 2013 c-8 -10 -39 -63 -68 -118 -177 -332 -419 -636 -579 -725
-105 -59 -331 -211 -416 -281 -44 -36 -93 -75 -110 -86 -16 -12 -88 -69 -160
-128 -193 -158 -842 -586 -895 -590 -33 -2 -57 -35 -26 -35 30 0 26 -20 -6
-34 -31 -13 -24 -14 104 -15 131 -1 141 0 215 30 77 30 189 78 291 125 74 35
131 46 264 51 92 4 139 0 225 -17 146 -28 263 -60 263 -71 0 -5 -16 -17 -35
-26 -31 -15 -42 -15 -78 -5 -94 28 -123 33 -174 26 l-54 -6 3 -36 3 -37 -50
-6 c-106 -14 -105 -27 2 -27 l101 0 6 33 c9 44 28 49 84 24 26 -11 72 -23 102
-26 50 -5 62 -1 134 36 44 23 83 41 88 41 22 0 2 -23 -52 -61 -33 -23 -60 -43
-60 -45 0 -2 37 -4 83 -4 l82 1 26 37 c21 31 26 51 27 99 1 58 4 65 50 122 58
72 89 127 78 138 -4 4 -11 1 -16 -8 -25 -44 -102 -139 -112 -139 -7 0 -25 22
-40 48 l-27 48 25 68 c23 63 25 106 5 106 -5 0 -14 -20 -21 -45 -14 -50 -44
-95 -63 -95 -7 0 -49 25 -94 54 -83 54 -267 135 -280 123 -14 -15 34 -47 130
-87 139 -57 239 -114 276 -155 34 -39 54 -96 49 -140 -3 -27 -7 -30 -41 -33
-23 -2 -133 20 -270 53 l-232 57 -135 -6 c-188 -8 -262 -25 -445 -101 -153
-64 -305 -112 -305 -96 1 14 120 80 175 96 33 9 91 30 128 47 98 42 259 76
428 89 127 9 154 9 205 -5 326 -89 412 -102 438 -65 11 16 12 26 4 39 -13 20
-63 40 -102 40 -16 0 -25 4 -21 10 3 6 15 10 26 10 10 0 19 4 19 9 0 4 -33 11
-73 14 -83 6 -147 28 -147 51 0 9 12 19 27 22 l27 7 -35 12 c-19 7 -53 16 -76
20 -46 7 -65 24 -82 74 -24 72 -21 75 69 67 44 -4 103 -15 131 -26 27 -11 54
-20 59 -20 5 0 6 22 3 50 -4 36 -2 50 7 50 25 0 78 -32 115 -70 22 -22 45 -40
52 -40 7 0 18 21 24 46 21 82 58 67 103 -43 14 -34 26 -72 26 -83 0 -27 4 -26
45 18 29 31 36 34 45 22 20 -31 22 -94 5 -138 -19 -47 -10 -72 28 -72 29 0 91
69 105 118 13 41 13 42 50 36 45 -7 53 1 71 71 17 70 59 158 71 150 5 -3 10
-18 10 -33 1 -77 8 -76 76 7 60 73 143 135 159 119 4 -3 2 -22 -3 -42 -13 -46
-2 -46 52 -3 23 18 71 50 109 70 l67 37 -6 -42 c-6 -35 -5 -40 8 -35 101 38
208 58 208 38 0 -5 -20 -26 -45 -47 -25 -20 -45 -40 -45 -44 0 -5 26 -16 58
-25 31 -9 65 -18 75 -21 48 -14 -7 -50 -130 -83 -23 -6 -58 -18 -79 -27 -49
-20 -30 -34 47 -34 42 0 63 -5 84 -22 23 -18 25 -22 11 -30 -9 -5 -51 -13 -93
-18 -43 -5 -91 -14 -108 -21 l-30 -12 45 -9 c25 -5 51 -16 59 -24 23 -22 -12
-51 -77 -65 -52 -10 -102 -44 -102 -69 0 -19 40 -50 65 -50 27 0 74 27 139 79
47 38 55 38 81 5 28 -35 64 -34 112 3 44 35 104 73 116 73 4 0 0 -11 -9 -25
-9 -14 -13 -32 -10 -41 7 -17 16 -17 133 2 23 3 58 3 78 0 34 -7 35 -8 20 -29
-23 -33 -19 -43 28 -57 67 -22 140 -57 171 -84 l29 -24 -39 -11 c-21 -6 -61
-11 -89 -12 -67 -1 -99 -11 -103 -32 -3 -15 9 -17 114 -17 101 0 121 3 150 21
19 11 34 24 34 29 0 19 -110 105 -173 135 l-67 33 37 22 38 23 -25 9 c-39 15
-167 38 -211 38 -47 0 -49 12 -9 41 16 12 27 26 24 30 -11 18 -168 -20 -231
-57 -23 -13 -49 -24 -58 -24 -14 0 -14 3 1 26 l17 26 -71 -8 c-69 -6 -72 -6
-72 15 0 18 6 21 40 21 41 0 103 20 113 37 3 5 -10 29 -29 52 -19 24 -34 47
-34 50 0 3 28 17 63 30 72 27 107 47 107 61 0 6 -6 10 -14 10 -7 0 -20 7 -27
17 -8 9 -33 28 -56 42 l-42 27 56 62 c30 35 53 66 50 69 -4 3 -62 1 -129 -5
-68 -6 -125 -8 -127 -6 -3 2 11 18 30 34 19 16 28 29 21 30 -19 0 -157 -56
-221 -90 -48 -27 -53 -27 -48 -10 4 17 0 20 -27 20 -37 0 -157 -55 -202 -93
-33 -28 -44 -26 -44 5 0 10 -6 18 -14 18 -25 0 -114 -110 -137 -169 -31 -78
-43 -90 -69 -66 -19 18 -20 17 -35 -18 -8 -20 -15 -48 -15 -62 0 -33 -24 -81
-46 -89 -13 -5 -15 -2 -9 11 4 10 10 41 12 70 5 53 -13 105 -57 163 l-19 25
-30 -35 c-23 -27 -30 -31 -31 -17 0 36 -30 74 -75 98 l-46 24 -23 -27 c-12
-16 -28 -28 -36 -28 -8 1 -62 23 -120 50 -58 26 -109 45 -113 40 -5 -4 -4 -25
2 -46 6 -21 7 -42 3 -45 -4 -4 -63 -1 -132 7 -69 8 -131 12 -139 9 -10 -4 -12
-17 -7 -51 9 -69 49 -135 103 -168 43 -28 44 -30 27 -43 -26 -19 -9 -28 73
-43 86 -15 114 -26 107 -44 -4 -11 9 -16 60 -21 66 -7 104 -29 73 -41 -19 -7
-159 21 -234 47 -106 36 -206 44 -400 31 -98 -6 -195 -16 -216 -22 -21 -6 -52
-10 -68 -8 -28 3 -17 13 127 110 88 59 224 163 304 233 291 252 290 252 615
468 83 55 177 122 210 148 76 61 168 170 236 280 101 162 119 193 119 201 0 4
25 52 57 106 31 53 67 115 80 137 23 41 30 75 15 75 -5 0 -16 -8 -24 -17z"/>
<path d="M7130 704 c-25 -7 -79 -23 -120 -34 -87 -26 -213 -86 -285 -138 -27
-19 -99 -77 -160 -128 -130 -109 -195 -151 -252 -166 -51 -12 -54 -22 -12 -37
48 -16 58 -14 121 25 48 29 80 39 186 59 159 28 292 64 292 77 0 11 -1 11
-165 -27 -60 -13 -126 -25 -145 -25 l-35 0 40 35 c57 50 81 61 166 79 149 31
283 66 293 77 12 13 7 12 -173 -16 -57 -9 -106 -13 -110 -10 -14 15 139 102
304 173 55 24 104 47 108 51 16 16 -8 19 -53 5z"/>
<path d="M6200 168 c0 -8 20 -24 45 -36 38 -18 63 -22 148 -22 103 0 140 -7
322 -54 54 -14 164 -33 243 -42 171 -20 185 -18 372 61 133 56 173 70 233 80
20 3 37 11 37 17 0 7 -23 9 -72 5 -58 -4 -104 -18 -228 -68 -140 -57 -163 -63
-240 -67 -75 -3 -104 1 -240 37 -167 43 -281 61 -400 61 -68 0 -157 15 -202
35 -12 5 -18 3 -18 -7z"/>
<path d="M6170 63 c0 -51 11 -65 46 -61 20 2 30 9 32 24 4 26 -34 74 -59 74
-15 0 -19 -7 -19 -37z"/>
</g>
</svg>
