<?xml version="1.0" standalone="no"?>
<!DOCTYPE svg PUBLIC "-//W3C//DTD SVG 20010904//EN"
 "http://www.w3.org/TR/2001/REC-SVG-20010904/DTD/svg10.dtd">
<svg version="1.0" xmlns="http://www.w3.org/2000/svg"
 width="1280.000000pt" height="640.000000pt" viewBox="0 0 1280.000000 640.000000"
 preserveAspectRatio="xMidYMid meet">
<metadata>
Created by potrace 1.15, written by Peter Selinger 2001-2017
</metadata>
<g transform="translate(0.000000,640.000000) scale(0.100000,-0.100000)"
fill="#000000" stroke="none">
<path d="M5491 5783 c-87 -44 -95 -161 -14 -222 l28 -20 -31 -1 c-37 0 -244
-35 -293 -50 -19 -5 -36 -8 -38 -6 -2 2 3 16 12 32 60 115 -79 233 -193 164
-34 -21 -62 -72 -62 -112 0 -37 34 -90 70 -109 l33 -18 -24 -9 c-102 -38 -141
-54 -193 -77 -51 -22 -57 -23 -51 -8 17 39 17 97 1 128 -58 107 -237 77 -247
-41 -6 -79 25 -125 99 -148 26 -8 42 -15 36 -15 -15 -1 -162 -91 -228 -140
-31 -23 -56 -38 -56 -33 0 4 5 13 11 19 6 6 11 26 12 45 2 83 -53 138 -138
138 -42 0 -52 -5 -86 -39 -33 -33 -39 -45 -39 -82 0 -85 70 -148 149 -135 19
3 30 2 25 -2 -5 -5 -62 -59 -126 -121 -93 -90 -115 -107 -105 -82 17 45 -7
108 -53 139 -29 20 -44 23 -88 20 -73 -6 -113 -45 -119 -115 -9 -105 86 -168
192 -127 14 6 7 -7 -22 -43 -24 -27 -70 -90 -103 -139 -51 -75 -60 -84 -60
-60 0 69 -66 136 -135 136 -57 0 -122 -55 -131 -112 -17 -104 100 -183 197
-133 l30 16 -49 -98 c-27 -54 -60 -126 -73 -159 l-23 -62 -16 46 c-18 53 -51
81 -106 89 -81 11 -142 -38 -151 -120 -12 -112 142 -182 224 -101 19 19 23 21
19 7 -36 -127 -47 -169 -60 -235 -9 -42 -16 -81 -16 -85 0 -4 -8 7 -18 26 -35
70 -110 97 -177 65 -54 -25 -77 -67 -72 -128 4 -42 10 -55 41 -83 29 -27 44
-33 82 -33 53 0 80 12 112 48 l24 27 -5 -25 c-14 -65 -18 -268 -8 -393 10
-121 40 -312 57 -365 4 -9 -3 -3 -14 14 -21 32 -76 64 -111 64 -95 0 -164
-103 -125 -185 26 -55 67 -77 132 -72 69 5 111 43 119 107 l6 44 14 -49 c51
-179 160 -415 265 -577 52 -79 64 -118 38 -118 -19 0 -40 33 -40 62 0 38 -10
31 -19 -12 -5 -26 -14 -35 -46 -46 -119 -40 -120 -198 -2 -243 15 -6 27 -17
27 -26 0 -13 -36 -15 -284 -15 l-284 0 -6 23 c-6 21 -7 21 -20 5 -19 -26 -27
-22 -24 10 2 19 -2 27 -12 27 -10 0 -14 -8 -12 -27 3 -32 -5 -36 -24 -10 -13
16 -14 16 -20 -5 l-6 -23 -283 0 -282 0 -7 123 c-9 151 -11 162 -21 212 l-8
40 -9 -30 c-5 -16 -11 -52 -14 -80 -4 -27 -7 -51 -9 -53 -1 -1 -10 28 -19 65
-32 130 -38 145 -46 137 -4 -5 -15 -45 -24 -89 -10 -44 -20 -89 -23 -100 -6
-19 -6 -19 -13 1 -5 11 -11 46 -15 78 -4 31 -11 58 -15 61 -13 8 -30 -166 -30
-309 l0 -138 -63 -65 c-86 -91 -294 -273 -388 -339 l-78 -55 -138 3 -138 3 -1
81 c0 44 -4 86 -8 92 -4 7 -5 16 -2 21 4 5 2 20 -3 33 l-9 23 -7 -28 c-4 -16
-8 -72 -9 -125 l-1 -97 -372 -3 -373 -2 0 50 c0 43 -4 55 -29 78 -34 32 -51
63 -51 91 0 36 -14 23 -30 -26 -8 -25 -24 -51 -35 -57 -30 -17 -35 -27 -35
-83 l0 -53 -50 0 c-49 0 -49 0 -61 40 -7 22 -18 45 -26 51 -7 6 -13 21 -13 33
0 42 -22 99 -47 122 -14 13 -49 31 -77 39 -45 14 -51 14 -59 0 -4 -8 -16 -23
-26 -33 -23 -22 -41 -75 -41 -121 0 -20 -6 -56 -14 -81 -12 -42 -16 -45 -50
-48 l-36 -3 0 -320 0 -319 6396 0 6397 0 -8 604 c-5 435 -4 605 4 610 7 5 11
42 11 97 0 72 -3 89 -15 89 -8 0 -15 6 -15 13 -1 6 -14 28 -30 47 -21 23 -30
45 -31 70 0 19 -10 62 -23 95 l-23 60 -17 -40 c-16 -37 -28 -82 -41 -146 -2
-14 -16 -38 -30 -53 -14 -15 -25 -31 -25 -37 0 -5 -7 -9 -15 -9 -12 0 -15 -17
-15 -90 0 -53 4 -90 10 -90 6 0 10 -68 10 -184 0 -154 -2 -185 -15 -190 -12
-4 -15 6 -15 62 -1 44 -7 78 -18 100 l-18 33 -17 -36 c-9 -20 -17 -51 -17 -70
l0 -35 -65 0 -65 0 -1 33 c0 17 -8 50 -18 72 l-18 40 -21 -42 c-19 -37 -22
-59 -22 -178 0 -83 -4 -135 -10 -135 -5 0 -10 16 -10 36 0 21 -4 33 -10 29 -5
-3 -10 -19 -10 -36 0 -27 -3 -29 -35 -29 -33 0 -35 2 -35 35 0 19 -4 35 -10
35 -5 0 -10 -16 -10 -35 0 -24 -5 -35 -15 -35 -13 0 -15 23 -15 145 0 114 -3
153 -16 177 l-16 31 -19 -43 c-10 -23 -19 -55 -19 -71 l0 -29 -65 0 -65 0 0
30 c0 16 -7 48 -17 71 l-16 42 -19 -37 c-16 -31 -19 -63 -21 -199 l-2 -162
-27 -3 c-25 -3 -28 0 -28 28 0 18 -4 29 -10 25 -5 -3 -10 -17 -10 -31 0 -21
-4 -24 -40 -24 -36 0 -40 3 -40 24 0 35 -18 42 -22 9 -3 -25 -7 -28 -45 -31
-42 -3 -43 -2 -43 28 0 18 -4 29 -10 25 -5 -3 -10 -17 -10 -31 0 -23 -3 -25
-42 -22 -36 2 -44 7 -46 26 -5 30 -22 28 -22 -3 0 -22 -4 -25 -40 -25 -36 0
-40 3 -40 25 0 14 -4 25 -10 25 -5 0 -10 -12 -10 -26 0 -23 -3 -25 -42 -22
-35 2 -43 7 -49 28 -7 24 -11 21 -13 -10 -1 -10 -14 -16 -43 -18 -40 -3 -43
-1 -43 22 0 14 -4 26 -10 26 -5 0 -10 -11 -10 -25 0 -22 -4 -25 -39 -25 -35 0
-39 3 -46 33 l-8 32 -6 -30 c-6 -27 -10 -30 -46 -30 -36 0 -40 3 -43 28 -4 33
-22 26 -22 -9 0 -21 -4 -24 -40 -24 -36 0 -40 3 -40 25 0 31 -17 33 -22 3 -2
-19 -9 -23 -42 -23 -34 0 -40 3 -41 22 -1 13 -5 26 -8 30 -7 6 -9 -1 -11 -37
-1 -9 -13 -16 -28 -18 l-28 -3 0 160 c0 130 -3 167 -17 196 -17 35 -17 35 -30
13 -7 -13 -12 -44 -13 -70 l0 -48 -75 0 -75 0 0 39 c0 21 -6 54 -14 72 l-14
33 -16 -32 c-13 -24 -16 -62 -16 -177 l0 -146 -32 3 c-29 3 -33 7 -36 36 -4
39 -22 33 -22 -9 0 -27 -2 -29 -40 -29 -38 0 -40 2 -40 29 0 17 -4 33 -10 36
-6 4 -10 -8 -10 -29 0 -36 0 -36 -45 -36 -45 0 -45 0 -45 35 0 19 -4 35 -10
35 -5 0 -10 -16 -10 -35 0 -34 -1 -35 -40 -35 -38 0 -40 2 -40 29 0 17 -4 33
-10 36 -6 4 -10 -8 -10 -30 0 -20 -4 -34 -9 -31 -4 3 -6 56 -3 118 4 105 3
118 -22 177 -14 36 -26 84 -26 108 0 24 -15 88 -34 142 -19 54 -38 120 -42
147 l-7 49 -13 -65 c-7 -36 -26 -103 -43 -149 -17 -47 -31 -104 -31 -128 0
-24 -9 -61 -20 -83 -17 -34 -20 -59 -20 -180 0 -118 -2 -140 -15 -140 -11 0
-15 11 -15 36 0 21 -4 33 -10 29 -5 -3 -10 -19 -10 -36 0 -27 -2 -29 -40 -29
-38 0 -40 2 -40 29 0 17 -4 33 -10 36 -6 4 -10 -8 -10 -29 0 -36 0 -36 -45
-36 -45 0 -45 0 -45 36 0 21 -4 33 -10 29 -5 -3 -10 -19 -10 -36 0 -27 -2 -29
-40 -29 -38 0 -40 2 -40 29 0 17 -4 33 -10 36 -6 4 -10 -8 -10 -30 0 -34 -2
-36 -27 -33 l-28 3 -5 155 c-3 90 -10 163 -17 175 -10 18 -12 16 -27 -19 -9
-21 -16 -54 -16 -72 l0 -34 -70 0 -70 0 -1 38 c0 20 -6 53 -13 72 l-13 35 -22
-43 c-20 -39 -22 -56 -20 -195 l1 -152 -29 0 c-23 0 -29 5 -31 28 -4 33 -22
26 -22 -9 0 -21 -4 -24 -40 -24 -38 0 -40 2 -40 31 0 17 -4 28 -10 24 -5 -3
-10 -17 -10 -31 0 -21 -4 -24 -40 -24 -36 0 -40 3 -40 24 0 35 -18 42 -22 9
-3 -25 -7 -28 -45 -31 -40 -3 -43 -1 -43 22 0 14 -4 26 -10 26 -5 0 -10 -11
-10 -25 0 -22 -4 -25 -40 -25 -33 0 -40 3 -40 19 0 29 -18 35 -22 9 -3 -20 -9
-23 -43 -23 -34 0 -40 3 -43 23 -5 30 -22 28 -22 -3 0 -22 -4 -25 -40 -25 -36
0 -40 3 -40 25 0 14 -4 25 -10 25 -5 0 -10 -11 -10 -25 0 -22 -4 -25 -40 -25
-36 0 -40 3 -40 24 0 14 -4 28 -10 31 -6 4 -10 -7 -10 -24 0 -29 -2 -31 -40
-31 -36 0 -40 3 -40 24 0 35 -18 42 -22 9 -2 -17 -10 -29 -20 -31 -17 -3 -18
26 -18 493 0 366 -3 502 -12 518 -7 12 -11 34 -9 49 1 15 -5 43 -14 62 -45 94
-181 102 -235 13 -67 -110 51 -235 173 -182 16 7 17 -2 17 -101 l0 -109 -25
30 c-13 17 -24 33 -25 38 0 4 -13 7 -30 7 -28 0 -30 3 -30 36 0 34 -26 94 -41
94 -15 0 -49 -69 -49 -99 0 -26 -4 -31 -25 -31 -13 0 -28 -7 -33 -17 -6 -10
-16 -14 -26 -10 -13 5 -16 22 -16 95 l0 88 78 155 c116 228 181 428 219 671
24 155 24 460 0 618 -55 359 -202 707 -415 987 -65 86 -230 273 -240 273 -4 1
-38 31 -77 67 -38 36 -60 60 -48 54 12 -6 43 -11 69 -11 41 0 51 5 85 39 33
32 39 45 39 80 0 77 -42 125 -117 136 -110 17 -189 -112 -125 -203 21 -29 16
-27 -49 22 -39 30 -112 78 -162 108 l-90 53 34 6 c77 12 119 58 119 129 0 128
-158 177 -239 74 -28 -36 -29 -112 -1 -147 19 -24 12 -22 -87 22 -60 27 -133
56 -163 66 -54 18 -55 19 -25 27 45 12 74 39 89 82 36 104 -57 199 -164 167
-86 -26 -120 -134 -63 -202 23 -27 24 -31 7 -26 -40 13 -191 46 -237 53 l-49
7 29 18 c32 21 63 73 63 107 0 40 -28 91 -62 112 -87 53 -208 -8 -208 -105 0
-36 25 -91 47 -104 13 -8 -23 -10 -139 -8 -87 1 -158 4 -158 7 0 3 9 11 19 17
11 7 24 28 31 48 37 112 -83 212 -189 158z m409 -268 c63 -4 151 -13 195 -21
44 -7 92 -16 106 -18 120 -21 359 -102 504 -170 901 -427 1398 -1387 1214
-2345 -22 -113 -85 -330 -100 -345 -5 -6 -9 -18 -9 -27 0 -9 -34 -85 -76 -168
-63 -125 -79 -150 -90 -140 -25 21 -54 -16 -54 -69 0 -41 -7 -55 -72 -141 -84
-110 -313 -345 -328 -336 -6 4 -9 2 -8 -3 6 -23 -238 -192 -392 -273 -198
-104 -471 -199 -579 -202 l-54 -2 -18 90 c-32 164 -32 164 -1 171 372 83 707
269 975 540 226 230 388 502 472 794 59 204 69 281 69 520 1 201 -8 289 -40
430 -22 98 -104 322 -153 419 -12 23 -19 47 -15 53 4 6 3 8 -3 5 -6 -4 -29 24
-53 64 -118 199 -338 434 -536 573 -60 42 -114 79 -119 83 -28 21 -180 95
-259 128 -394 162 -811 196 -1251 101 -11 -2 -70 -20 -130 -39 -364 -115 -690
-335 -928 -627 -34 -41 -64 -77 -67 -80 -18 -15 -117 -182 -164 -277 -454
-905 -97 -1998 814 -2495 138 -75 334 -151 468 -180 53 -12 99 -23 100 -24 2
-1 -3 -38 -12 -81 -9 -43 -19 -98 -24 -123 -6 -34 -12 -46 -28 -48 -21 -3
-244 58 -298 82 -17 7 -53 21 -81 31 -86 30 -299 142 -402 212 -132 89 -229
169 -344 283 -103 103 -103 103 -115 230 -7 72 -24 106 -24 48 0 -20 -4 -39
-9 -42 -4 -3 -6 -17 -3 -31 2 -14 0 -25 -4 -25 -14 0 -31 31 -39 70 -3 19 -12
53 -17 75 l-11 40 -11 -38 -12 -38 -44 73 c-25 40 -51 82 -58 93 -76 123 -169
355 -211 525 -48 196 -63 323 -63 525 0 349 71 646 225 950 356 702 1070 1162
1867 1204 74 4 146 6 160 5 14 -2 77 -6 140 -9z m-19 -255 c278 -28 520 -100
749 -222 558 -296 929 -828 1005 -1441 106 -858 -404 -1680 -1236 -1990 -88
-33 -289 -91 -294 -85 -1 2 -9 41 -18 88 -9 47 -84 434 -167 860 -82 427 -150
782 -150 790 0 8 18 25 39 37 95 54 94 194 -1 254 -26 15 -46 19 -89 17 -71
-5 -112 -33 -134 -93 -24 -62 -13 -109 35 -157 l38 -38 -89 -468 c-49 -257
-124 -653 -166 -880 l-78 -413 -45 6 c-81 12 -271 75 -392 130 -270 122 -496
289 -677 500 -86 100 -171 216 -171 234 0 6 -4 11 -9 11 -16 0 -149 281 -185
391 -145 439 -123 898 62 1326 140 325 379 608 686 814 380 256 842 373 1287
329z m-161 -2027 c0 -14 29 -263 65 -552 36 -289 77 -618 90 -731 14 -113 33
-261 41 -328 9 -68 14 -125 12 -127 -2 -2 -54 -7 -116 -11 l-112 -7 -1 29 -2
29 -4 -28 -5 -29 -85 6 c-47 3 -87 7 -89 8 -1 2 40 383 92 848 51 465 94 862
94 883 0 20 5 37 10 37 6 0 10 -12 10 -27z m1870 -1157 c0 -15 -12 -33 -34
-50 -70 -53 -72 -142 -6 -199 39 -33 40 -35 40 -99 0 -52 -5 -75 -25 -109 -23
-41 -25 -53 -25 -181 0 -85 -4 -138 -10 -138 -5 0 -10 16 -10 35 0 19 -4 35
-10 35 -5 0 -10 -16 -10 -35 0 -33 -2 -35 -35 -35 -32 0 -35 2 -35 29 0 17 -4
33 -10 36 -6 4 -10 -8 -10 -29 0 -25 -4 -36 -15 -36 -25 0 -21 150 5 192 54
88 -10 198 -115 198 -42 0 -102 -29 -111 -55 -8 -21 -24 -19 -24 3 0 9 25 37
56 62 75 60 279 272 329 343 44 62 55 69 55 33z m-3262 -434 c183 -140 429
-274 642 -347 57 -20 106 -38 109 -40 2 -3 -82 -5 -187 -5 l-191 0 6 33 c7 46
-19 102 -59 127 -66 40 -159 16 -193 -50 -8 -16 -17 -30 -20 -30 -2 0 -45 34
-94 75 l-90 75 24 36 c29 42 31 70 11 119 -30 70 -141 100 -200 54 -15 -12
-28 -20 -29 -18 -1 2 -8 14 -14 26 -8 14 -13 61 -13 119 l0 97 103 -99 c56
-55 144 -132 195 -172z m-548 -177 l0 -215 -256 0 c-165 0 -262 4 -276 11 -14
8 -23 8 -31 0 -14 -14 -134 -15 -142 -1 -4 7 -12 7 -25 0 -11 -6 -123 -10
-274 -10 l-256 0 0 215 0 215 630 0 630 0 0 -215z m3336 136 c-13 -24 -16 -64
-16 -191 l0 -161 -72 3 -72 3 -7 34 c-14 69 -97 116 -172 97 -35 -8 -76 -53
-87 -97 l-11 -39 -149 0 c-83 0 -150 2 -150 4 0 2 51 21 113 42 147 51 375
163 508 252 59 38 110 75 114 82 15 24 16 0 1 -29z m-4848 -168 l-3 -178 -57
-3 -58 -3 0 114 0 114 53 66 c28 36 55 66 60 66 4 1 6 -79 5 -176z m-148 63
c0 -2 -8 -10 -17 -17 -16 -13 -17 -12 -4 4 13 16 21 21 21 13z m3568 -31 c10
-8 -33 -77 -53 -85 -21 -8 -24 -16 -27 -67 l-3 -58 -55 -1 c-30 -1 -58 0 -61
2 -3 2 0 47 7 101 7 54 13 103 14 109 0 7 29 9 88 6 48 -2 88 -5 90 -7z m246
-2 c3 -10 8 -45 11 -78 3 -33 8 -77 11 -98 l6 -38 -89 3 c-61 2 -88 7 -89 16
-1 6 -2 33 -3 58 -1 36 -5 47 -20 51 -18 5 -51 57 -51 82 0 6 33 12 83 14 45
1 94 4 109 5 18 1 28 -4 32 -15z m-1794 -109 c0 -102 0 -104 -23 -104 -35 0
-37 7 -17 52 16 37 17 46 4 87 -17 56 -11 81 16 74 18 -5 20 -14 20 -109z
m-2070 87 c0 -6 -4 -13 -10 -16 -5 -3 -10 1 -10 9 0 9 5 16 10 16 6 0 10 -4
10 -9z m60 -91 l0 -100 -40 0 -40 0 0 56 c0 49 4 60 37 100 21 24 39 44 40 44
2 0 3 -45 3 -100z m2110 -43 l0 -58 -37 3 -38 3 -3 100 -2 100 39 -45 c37 -41
40 -50 41 -103z m0 127 c0 -8 -4 -12 -10 -9 -5 3 -10 10 -10 16 0 5 5 9 10 9
6 0 10 -7 10 -16z m-2213 -39 c-4 -8 -11 -15 -17 -15 -7 0 -7 6 0 21 13 23 26
19 17 -6z m2261 -11 c-10 -10 -28 6 -28 24 0 15 1 15 17 -1 9 -9 14 -19 11
-23z m-2308 -22 c0 -5 -7 -17 -15 -28 -14 -19 -14 -19 -15 2 0 11 3 24 7 27 9
10 23 9 23 -1z m2360 -22 c0 -11 -2 -20 -5 -20 -2 0 -9 9 -15 20 -9 16 -8 20
5 20 8 0 15 -9 15 -20z m-2310 -45 l0 -45 -40 0 c-22 0 -40 3 -40 7 0 7 71 83
77 83 2 0 3 -20 3 -45z m-109 -8 c-17 -17 -24 -1 -10 25 12 21 14 21 17 4 2
-10 -1 -23 -7 -29z m2386 11 c18 -18 33 -36 33 -41 0 -4 -17 -7 -37 -5 -36 3
-38 5 -41 41 -2 20 0 37 4 37 5 0 23 -14 41 -32z m83 -11 c0 -20 -25 1 -28 24
-2 23 -2 23 13 5 8 -11 15 -24 15 -29z m-2495 14 c-3 -6 -11 -11 -17 -11 -6 0
-6 6 2 15 14 17 26 13 15 -4z m2525 -6 c7 -8 8 -15 2 -15 -5 0 -15 7 -22 15
-7 8 -8 15 -2 15 5 0 15 -7 22 -15z m-2546 -36 c-8 -14 -24 -10 -24 6 0 9 6
12 15 9 8 -4 12 -10 9 -15z m2568 -1 c-9 -9 -15 -9 -24 0 -9 9 -7 12 12 12 19
0 21 -3 12 -12z"/>
<path d="M7493 4980 c-51 -31 -68 -66 -64 -138 1 -12 16 -38 34 -58 81 -89
227 -34 227 86 0 102 -110 164 -197 110z"/>
<path d="M7759 4597 c-40 -27 -66 -89 -55 -132 10 -41 66 -92 108 -100 79 -15
158 51 158 133 0 35 -36 92 -70 109 -40 20 -103 16 -141 -10z"/>
<path d="M7953 4225 c-67 -29 -92 -118 -53 -183 51 -84 185 -79 232 9 23 43
23 75 0 118 -34 62 -110 86 -179 56z"/>
<path d="M8053 3760 c-73 -44 -83 -139 -19 -197 47 -44 93 -51 150 -24 127 62
82 241 -61 241 -21 0 -52 -9 -70 -20z"/>
<path d="M3273 3355 c-67 -29 -96 -133 -52 -189 82 -104 243 -54 241 76 -2 95
-98 153 -189 113z"/>
<path d="M8071 3312 c-65 -35 -89 -118 -51 -179 66 -109 250 -64 250 62 0 69
-66 135 -135 135 -17 0 -46 -8 -64 -18z"/>
<path d="M7990 2872 c-37 -20 -70 -72 -70 -110 0 -131 182 -182 250 -69 70
115 -59 242 -180 179z"/>
<path d="M3491 2482 c-65 -36 -89 -118 -51 -179 54 -88 197 -81 236 12 19 46
18 74 -6 112 -39 65 -118 89 -179 55z"/>
</g>
</svg>
